<?xml version="1.0" encoding="UTF-8" standalone="no"?>
<!DOCTYPE svg PUBLIC "-//W3C//DTD SVG 1.1//EN"
 "http://www.w3.org/Graphics/SVG/1.1/DTD/svg11.dtd">
<!-- Generated by graphviz version 13.1.2 (20250808.2320)
 -->
<!-- Title: DFA_even_a_odd_b Pages: 1 -->
<svg width="210pt" height="170pt"
 viewBox="0.00 0.00 210.00 170.00" xmlns="http://www.w3.org/2000/svg" xmlns:xlink="http://www.w3.org/1999/xlink">
<g id="graph0" class="graph" transform="scale(1 1) rotate(0) translate(4 166.27)">
<title>DFA_even_a_odd_b</title>
<polygon fill="white" stroke="none" points="-4,4 -4,-166.27 206.21,-166.27 206.21,4 -4,4"/>
<!-- q2 -->
<g id="node1" class="node">
<title>q2</title>
<ellipse fill="lightgreen" stroke="black" cx="75" cy="-24.13" rx="20.13" ry="20.13"/>
<ellipse fill="none" stroke="black" cx="75" cy="-24.13" rx="24.13" ry="24.13"/>
<text xml:space="preserve" text-anchor="middle" x="75" y="-19.08" font-family="Times New Roman,serif" font-size="14.00">q2</text>
</g>
<!-- q0 -->
<g id="node2" class="node">
<title>q0</title>
<ellipse fill="lightblue" stroke="black" cx="181.38" cy="-49.13" rx="20.13" ry="20.13"/>
<text xml:space="preserve" text-anchor="middle" x="181.38" y="-44.08" font-family="Times New Roman,serif" font-size="14.00">q0</text>
</g>
<!-- q2&#45;&gt;q0 -->
<g id="edge7" class="edge">
<title>q2&#45;&gt;q0</title>
<path fill="none" stroke="black" d="M98.91,-29.62C113.97,-33.23 133.85,-37.99 150.21,-41.9"/>
<polygon fill="black" stroke="black" points="149.36,-45.3 159.9,-44.22 150.99,-38.49 149.36,-45.3"/>
<text xml:space="preserve" text-anchor="middle" x="131.62" y="-42.81" font-family="Times New Roman,serif" font-size="14.00">b</text>
</g>
<!-- q3 -->
<g id="node4" class="node">
<title>q3</title>
<ellipse fill="lightblue" stroke="black" cx="75" cy="-142.13" rx="20.13" ry="20.13"/>
<text xml:space="preserve" text-anchor="middle" x="75" y="-137.08" font-family="Times New Roman,serif" font-size="14.00">q3</text>
</g>
<!-- q2&#45;&gt;q3 -->
<g id="edge6" class="edge">
<title>q2&#45;&gt;q3</title>
<path fill="none" stroke="black" d="M54.7,-37.96C45.97,-45.15 36.7,-54.76 32,-65.88 29.14,-72.64 30.21,-75.27 32,-82.38 35.48,-96.18 44.07,-109.29 52.66,-119.68"/>
<polygon fill="black" stroke="black" points="49.84,-121.77 59.09,-126.94 55.08,-117.14 49.84,-121.77"/>
<text xml:space="preserve" text-anchor="middle" x="27" y="-69.08" font-family="Times New Roman,serif" font-size="14.00">a</text>
</g>
<!-- q0&#45;&gt;q2 -->
<g id="edge3" class="edge">
<title>q0&#45;&gt;q2</title>
<path fill="none" stroke="black" d="M170.38,-31.77C163.95,-22.44 154.67,-11.82 143.25,-6.63 131.85,-1.45 118.63,-3.35 106.95,-7.44"/>
<polygon fill="black" stroke="black" points="105.61,-4.21 97.73,-11.29 108.3,-10.67 105.61,-4.21"/>
<text xml:space="preserve" text-anchor="middle" x="131.62" y="-9.83" font-family="Times New Roman,serif" font-size="14.00">b</text>
</g>
<!-- q1 -->
<g id="node3" class="node">
<title>q1</title>
<ellipse fill="lightblue" stroke="black" cx="181.38" cy="-125.13" rx="20.13" ry="20.13"/>
<text xml:space="preserve" text-anchor="middle" x="181.38" y="-120.08" font-family="Times New Roman,serif" font-size="14.00">q1</text>
</g>
<!-- q0&#45;&gt;q1 -->
<g id="edge2" class="edge">
<title>q0&#45;&gt;q1</title>
<path fill="none" stroke="black" d="M192.95,-65.84C196.17,-71.4 199.24,-77.8 200.88,-84.13 202.21,-89.25 201.5,-94.5 199.74,-99.46"/>
<polygon fill="black" stroke="black" points="196.63,-97.84 195.24,-108.35 202.88,-101 196.63,-97.84"/>
<text xml:space="preserve" text-anchor="middle" x="192.63" y="-82.08" font-family="Times New Roman,serif" font-size="14.00">a</text>
</g>
<!-- q1&#45;&gt;q0 -->
<g id="edge4" class="edge">
<title>q1&#45;&gt;q0</title>
<path fill="none" stroke="black" d="M181.38,-104.71C181.38,-97.38 181.38,-88.92 181.38,-80.86"/>
<polygon fill="black" stroke="black" points="184.88,-81.01 181.38,-71.01 177.88,-81.01 184.88,-81.01"/>
<text xml:space="preserve" text-anchor="middle" x="170.13" y="-82.08" font-family="Times New Roman,serif" font-size="14.00">a</text>
</g>
<!-- q1&#45;&gt;q3 -->
<g id="edge5" class="edge">
<title>q1&#45;&gt;q3</title>
<path fill="none" stroke="black" d="M160.92,-124.08C149,-123.81 133.51,-124.15 120,-126.63 114.93,-127.56 109.67,-128.99 104.62,-130.6"/>
<polygon fill="black" stroke="black" points="103.75,-127.2 95.49,-133.82 106.08,-133.8 103.75,-127.2"/>
<text xml:space="preserve" text-anchor="middle" x="131.62" y="-129.83" font-family="Times New Roman,serif" font-size="14.00">b</text>
</g>
<!-- q3&#45;&gt;q2 -->
<g id="edge8" class="edge">
<title>q3&#45;&gt;q2</title>
<path fill="none" stroke="black" d="M60.09,-128.08C49.54,-116.9 36.49,-100.23 32,-82.38 30.21,-75.27 29.14,-72.64 32,-65.88 35.23,-58.24 40.62,-51.31 46.51,-45.38"/>
<polygon fill="black" stroke="black" points="48.52,-48.29 53.58,-38.98 43.82,-43.1 48.52,-48.29"/>
<text xml:space="preserve" text-anchor="middle" x="27" y="-69.08" font-family="Times New Roman,serif" font-size="14.00">a</text>
</g>
<!-- q3&#45;&gt;q1 -->
<g id="edge9" class="edge">
<title>q3&#45;&gt;q1</title>
<path fill="none" stroke="black" d="M95.39,-144.84C108.96,-146.16 127.43,-146.76 143.25,-143.13 146.63,-142.35 150.06,-141.23 153.4,-139.91"/>
<polygon fill="black" stroke="black" points="154.58,-143.22 162.22,-135.88 151.67,-136.85 154.58,-143.22"/>
<text xml:space="preserve" text-anchor="middle" x="131.62" y="-148.97" font-family="Times New Roman,serif" font-size="14.00">b</text>
</g>
<!-- start -->
<g id="node5" class="node">
<title>start</title>
<polygon fill="lightblue" stroke="none" points="102,-103.13 48,-103.13 48,-67.13 102,-67.13 102,-103.13"/>
</g>
<!-- start&#45;&gt;q0 -->
<g id="edge1" class="edge">
<title>start&#45;&gt;q0</title>
<path fill="none" stroke="black" d="M101.8,-76.23C116.86,-71.04 135.9,-64.47 151.46,-59.1"/>
<polygon fill="black" stroke="black" points="152.33,-62.51 160.65,-55.94 150.05,-55.89 152.33,-62.51"/>
<text xml:space="preserve" text-anchor="middle" x="131.62" y="-72.49" font-family="Times New Roman,serif" font-size="14.00">start</text>
</g>
</g>
</svg>
