<?xml version="1.0" encoding="UTF-8" standalone="no"?>
<!DOCTYPE svg PUBLIC "-//W3C//DTD SVG 1.1//EN"
 "http://www.w3.org/Graphics/SVG/1.1/DTD/svg11.dtd">
<!-- Generated by graphviz version 13.1.2 (20250808.2320)
 -->
<!-- Title: DFA_at_most_3_a Pages: 1 -->
<svg width="320pt" height="327pt"
 viewBox="0.00 0.00 320.00 327.00" xmlns="http://www.w3.org/2000/svg" xmlns:xlink="http://www.w3.org/1999/xlink">
<g id="graph0" class="graph" transform="scale(1 1) rotate(0) translate(4 322.76)">
<title>DFA_at_most_3_a</title>
<polygon fill="white" stroke="none" points="-4,4 -4,-322.76 315.79,-322.76 315.79,4 -4,4"/>
<!-- q0 -->
<g id="node1" class="node">
<title>q0</title>
<ellipse fill="lightgreen" stroke="black" cx="115.13" cy="-260.13" rx="20.13" ry="20.13"/>
<ellipse fill="none" stroke="black" cx="115.13" cy="-260.13" rx="24.13" ry="24.13"/>
<text xml:space="preserve" text-anchor="middle" x="115.13" y="-255.08" font-family="Times New Roman,serif" font-size="14.00">q0</text>
</g>
<!-- q0&#45;&gt;q0 -->
<g id="edge3" class="edge">
<title>q0&#45;&gt;q0</title>
<path fill="none" stroke="black" d="M107.26,-283.1C106.51,-293.38 109.14,-302.26 115.13,-302.26 118.69,-302.26 121.06,-299.13 122.24,-294.43"/>
<polygon fill="black" stroke="black" points="125.73,-294.82 122.9,-284.61 118.74,-294.35 125.73,-294.82"/>
<text xml:space="preserve" text-anchor="middle" x="115.13" y="-305.46" font-family="Times New Roman,serif" font-size="14.00">b</text>
</g>
<!-- q1 -->
<g id="node2" class="node">
<title>q1</title>
<ellipse fill="lightgreen" stroke="black" cx="115.13" cy="-142.13" rx="20.13" ry="20.13"/>
<ellipse fill="none" stroke="black" cx="115.13" cy="-142.13" rx="24.13" ry="24.13"/>
<text xml:space="preserve" text-anchor="middle" x="115.13" y="-137.08" font-family="Times New Roman,serif" font-size="14.00">q1</text>
</g>
<!-- q0&#45;&gt;q1 -->
<g id="edge2" class="edge">
<title>q0&#45;&gt;q1</title>
<path fill="none" stroke="black" d="M115.13,-235.71C115.13,-219.03 115.13,-196.64 115.13,-177.95"/>
<polygon fill="black" stroke="black" points="118.63,-178.09 115.13,-168.09 111.63,-178.09 118.63,-178.09"/>
<text xml:space="preserve" text-anchor="middle" x="103.88" y="-196.08" font-family="Times New Roman,serif" font-size="14.00">a</text>
</g>
<!-- q1&#45;&gt;q1 -->
<g id="edge5" class="edge">
<title>q1&#45;&gt;q1</title>
<path fill="none" stroke="black" d="M107.26,-165.1C106.51,-175.38 109.14,-184.26 115.13,-184.26 118.69,-184.26 121.06,-181.13 122.24,-176.43"/>
<polygon fill="black" stroke="black" points="125.73,-176.82 122.9,-166.61 118.74,-176.35 125.73,-176.82"/>
<text xml:space="preserve" text-anchor="middle" x="115.13" y="-187.46" font-family="Times New Roman,serif" font-size="14.00">b</text>
</g>
<!-- q2 -->
<g id="node3" class="node">
<title>q2</title>
<ellipse fill="lightgreen" stroke="black" cx="205.39" cy="-142.13" rx="20.13" ry="20.13"/>
<ellipse fill="none" stroke="black" cx="205.39" cy="-142.13" rx="24.13" ry="24.13"/>
<text xml:space="preserve" text-anchor="middle" x="205.39" y="-137.08" font-family="Times New Roman,serif" font-size="14.00">q2</text>
</g>
<!-- q1&#45;&gt;q2 -->
<g id="edge4" class="edge">
<title>q1&#45;&gt;q2</title>
<path fill="none" stroke="black" d="M139.32,-142.13C148.57,-142.13 159.42,-142.13 169.58,-142.13"/>
<polygon fill="black" stroke="black" points="169.54,-145.63 179.54,-142.13 169.54,-138.63 169.54,-145.63"/>
<text xml:space="preserve" text-anchor="middle" x="160.26" y="-145.33" font-family="Times New Roman,serif" font-size="14.00">a</text>
</g>
<!-- q2&#45;&gt;q2 -->
<g id="edge7" class="edge">
<title>q2&#45;&gt;q2</title>
<path fill="none" stroke="black" d="M197.06,-165.1C196.27,-175.38 199.05,-184.26 205.39,-184.26 209.16,-184.26 211.67,-181.13 212.92,-176.43"/>
<polygon fill="black" stroke="black" points="216.4,-176.83 213.62,-166.61 209.42,-176.34 216.4,-176.83"/>
<text xml:space="preserve" text-anchor="middle" x="205.39" y="-187.46" font-family="Times New Roman,serif" font-size="14.00">b</text>
</g>
<!-- q3 -->
<g id="node4" class="node">
<title>q3</title>
<ellipse fill="lightgreen" stroke="black" cx="205.39" cy="-24.13" rx="20.13" ry="20.13"/>
<ellipse fill="none" stroke="black" cx="205.39" cy="-24.13" rx="24.13" ry="24.13"/>
<text xml:space="preserve" text-anchor="middle" x="205.39" y="-19.08" font-family="Times New Roman,serif" font-size="14.00">q3</text>
</g>
<!-- q2&#45;&gt;q3 -->
<g id="edge6" class="edge">
<title>q2&#45;&gt;q3</title>
<path fill="none" stroke="black" d="M205.39,-117.71C205.39,-101.03 205.39,-78.64 205.39,-59.95"/>
<polygon fill="black" stroke="black" points="208.89,-60.09 205.39,-50.09 201.89,-60.09 208.89,-60.09"/>
<text xml:space="preserve" text-anchor="middle" x="194.14" y="-78.08" font-family="Times New Roman,serif" font-size="14.00">a</text>
</g>
<!-- q3&#45;&gt;q3 -->
<g id="edge9" class="edge">
<title>q3&#45;&gt;q3</title>
<path fill="none" stroke="black" d="M197.06,-47.1C196.27,-57.38 199.05,-66.26 205.39,-66.26 209.16,-66.26 211.67,-63.13 212.92,-58.43"/>
<polygon fill="black" stroke="black" points="216.4,-58.83 213.62,-48.61 209.42,-58.34 216.4,-58.83"/>
<text xml:space="preserve" text-anchor="middle" x="205.39" y="-69.46" font-family="Times New Roman,serif" font-size="14.00">b</text>
</g>
<!-- q4 -->
<g id="node5" class="node">
<title>q4</title>
<ellipse fill="red" stroke="black" cx="291.66" cy="-24.13" rx="20.13" ry="20.13"/>
<text xml:space="preserve" text-anchor="middle" x="291.66" y="-19.08" font-family="Times New Roman,serif" font-size="14.00">q4</text>
</g>
<!-- q3&#45;&gt;q4 -->
<g id="edge8" class="edge">
<title>q3&#45;&gt;q4</title>
<path fill="none" stroke="black" d="M229.87,-24.13C239.14,-24.13 249.93,-24.13 259.83,-24.13"/>
<polygon fill="black" stroke="black" points="259.77,-27.63 269.77,-24.13 259.77,-20.63 259.77,-27.63"/>
<text xml:space="preserve" text-anchor="middle" x="250.52" y="-27.33" font-family="Times New Roman,serif" font-size="14.00">a</text>
</g>
<!-- q4&#45;&gt;q4 -->
<g id="edge10" class="edge">
<title>q4&#45;&gt;q4</title>
<path fill="none" stroke="black" d="M284.21,-43.36C283.07,-53.3 285.55,-62.26 291.66,-62.26 295.19,-62.26 297.5,-59.27 298.61,-54.82"/>
<polygon fill="black" stroke="black" points="302.1,-55.01 299.03,-44.87 295.11,-54.71 302.1,-55.01"/>
<text xml:space="preserve" text-anchor="middle" x="291.66" y="-65.46" font-family="Times New Roman,serif" font-size="14.00">a,b</text>
</g>
<!-- start -->
<g id="node6" class="node">
<title>start</title>
<polygon fill="red" stroke="none" points="54,-278.13 0,-278.13 0,-242.13 54,-242.13 54,-278.13"/>
</g>
<!-- start&#45;&gt;q0 -->
<g id="edge1" class="edge">
<title>start&#45;&gt;q0</title>
<path fill="none" stroke="black" d="M53.84,-260.13C61.88,-260.13 70.88,-260.13 79.42,-260.13"/>
<polygon fill="black" stroke="black" points="79.14,-263.63 89.14,-260.13 79.14,-256.63 79.14,-263.63"/>
</g>
</g>
</svg>
