<?xml version="1.0" encoding="UTF-8" standalone="no"?>
<!DOCTYPE svg PUBLIC "-//W3C//DTD SVG 1.1//EN"
 "http://www.w3.org/Graphics/SVG/1.1/DTD/svg11.dtd">
<!-- Generated by graphviz version 13.1.2 (20250808.2320)
 -->
<!-- Title: DFA_at_most_two_consecutive_b Pages: 1 -->
<svg width="261pt" height="237pt"
 viewBox="0.00 0.00 261.00 237.00" xmlns="http://www.w3.org/2000/svg" xmlns:xlink="http://www.w3.org/1999/xlink">
<g id="graph0" class="graph" transform="scale(1 1) rotate(0) translate(4 232.76)">
<title>DFA_at_most_two_consecutive_b</title>
<polygon fill="white" stroke="none" points="-4,4 -4,-232.76 256.52,-232.76 256.52,4 -4,4"/>
<!-- q0 -->
<g id="node1" class="node">
<title>q0</title>
<ellipse fill="lightgreen" stroke="black" cx="137.38" cy="-170.13" rx="20.13" ry="20.13"/>
<ellipse fill="none" stroke="black" cx="137.38" cy="-170.13" rx="24.13" ry="24.13"/>
<text xml:space="preserve" text-anchor="middle" x="137.38" y="-165.08" font-family="Times New Roman,serif" font-size="14.00">q0</text>
</g>
<!-- q0&#45;&gt;q0 -->
<g id="edge2" class="edge">
<title>q0&#45;&gt;q0</title>
<path fill="none" stroke="black" d="M128.98,-193.1C128.18,-203.38 130.98,-212.26 137.38,-212.26 141.18,-212.26 143.71,-209.13 144.97,-204.43"/>
<polygon fill="black" stroke="black" points="148.45,-204.83 145.67,-194.61 141.47,-204.34 148.45,-204.83"/>
<text xml:space="preserve" text-anchor="middle" x="137.38" y="-215.46" font-family="Times New Roman,serif" font-size="14.00">a</text>
</g>
<!-- q1 -->
<g id="node2" class="node">
<title>q1</title>
<ellipse fill="lightgreen" stroke="black" cx="137.38" cy="-86.13" rx="20.13" ry="20.13"/>
<ellipse fill="none" stroke="black" cx="137.38" cy="-86.13" rx="24.13" ry="24.13"/>
<text xml:space="preserve" text-anchor="middle" x="137.38" y="-81.08" font-family="Times New Roman,serif" font-size="14.00">q1</text>
</g>
<!-- q0&#45;&gt;q1 -->
<g id="edge3" class="edge">
<title>q0&#45;&gt;q1</title>
<path fill="none" stroke="black" d="M137.38,-145.6C137.38,-138.16 137.38,-129.83 137.38,-121.81"/>
<polygon fill="black" stroke="black" points="140.88,-121.94 137.38,-111.94 133.88,-121.94 140.88,-121.94"/>
<text xml:space="preserve" text-anchor="middle" x="126.13" y="-123.08" font-family="Times New Roman,serif" font-size="14.00">b</text>
</g>
<!-- q1&#45;&gt;q0 -->
<g id="edge4" class="edge">
<title>q1&#45;&gt;q0</title>
<path fill="none" stroke="black" d="M149.98,-106.91C152.82,-112.62 155.42,-118.94 156.88,-125.13 158.06,-130.11 157.61,-135.24 156.23,-140.16"/>
<polygon fill="black" stroke="black" points="153.12,-138.51 152.57,-149.09 159.6,-141.16 153.12,-138.51"/>
<text xml:space="preserve" text-anchor="middle" x="148.63" y="-123.08" font-family="Times New Roman,serif" font-size="14.00">a</text>
</g>
<!-- q2 -->
<g id="node3" class="node">
<title>q2</title>
<ellipse fill="lightgreen" stroke="black" cx="228.39" cy="-134.13" rx="20.13" ry="20.13"/>
<ellipse fill="none" stroke="black" cx="228.39" cy="-134.13" rx="24.13" ry="24.13"/>
<text xml:space="preserve" text-anchor="middle" x="228.39" y="-129.08" font-family="Times New Roman,serif" font-size="14.00">q2</text>
</g>
<!-- q1&#45;&gt;q2 -->
<g id="edge5" class="edge">
<title>q1&#45;&gt;q2</title>
<path fill="none" stroke="black" d="M159.03,-97.26C170.18,-103.28 184.17,-110.82 196.59,-117.52"/>
<polygon fill="black" stroke="black" points="194.76,-120.51 205.22,-122.17 198.08,-114.35 194.76,-120.51"/>
<text xml:space="preserve" text-anchor="middle" x="182.89" y="-114.77" font-family="Times New Roman,serif" font-size="14.00">b</text>
</g>
<!-- q2&#45;&gt;q0 -->
<g id="edge6" class="edge">
<title>q2&#45;&gt;q0</title>
<path fill="none" stroke="black" d="M205.43,-143.02C194.91,-147.27 182.13,-152.44 170.55,-157.12"/>
<polygon fill="black" stroke="black" points="169.29,-153.85 161.33,-160.85 171.91,-160.34 169.29,-153.85"/>
<text xml:space="preserve" text-anchor="middle" x="182.89" y="-156.41" font-family="Times New Roman,serif" font-size="14.00">a</text>
</g>
<!-- q3 -->
<g id="node4" class="node">
<title>q3</title>
<ellipse fill="red" stroke="black" cx="228.39" cy="-20.13" rx="20.13" ry="20.13"/>
<text xml:space="preserve" text-anchor="middle" x="228.39" y="-15.08" font-family="Times New Roman,serif" font-size="14.00">q3</text>
</g>
<!-- q2&#45;&gt;q3 -->
<g id="edge7" class="edge">
<title>q2&#45;&gt;q3</title>
<path fill="none" stroke="black" d="M228.39,-109.56C228.39,-92.65 228.39,-70.04 228.39,-51.78"/>
<polygon fill="black" stroke="black" points="231.89,-52.03 228.39,-42.03 224.89,-52.03 231.89,-52.03"/>
<text xml:space="preserve" text-anchor="middle" x="217.14" y="-70.08" font-family="Times New Roman,serif" font-size="14.00">b</text>
</g>
<!-- q3&#45;&gt;q3 -->
<g id="edge8" class="edge">
<title>q3&#45;&gt;q3</title>
<path fill="none" stroke="black" d="M220.21,-38.97C218.82,-49.06 221.55,-58.26 228.39,-58.26 232.46,-58.26 235.07,-55.02 236.23,-50.27"/>
<polygon fill="black" stroke="black" points="239.72,-50.58 236.53,-40.48 232.72,-50.37 239.72,-50.58"/>
<text xml:space="preserve" text-anchor="middle" x="228.39" y="-61.46" font-family="Times New Roman,serif" font-size="14.00">a,b</text>
</g>
<!-- start -->
<g id="node5" class="node">
<title>start</title>
<polygon fill="red" stroke="none" points="54,-188.13 0,-188.13 0,-152.13 54,-152.13 54,-188.13"/>
</g>
<!-- start&#45;&gt;q0 -->
<g id="edge1" class="edge">
<title>start&#45;&gt;q0</title>
<path fill="none" stroke="black" d="M53.96,-170.13C68.23,-170.13 86.13,-170.13 101.6,-170.13"/>
<polygon fill="black" stroke="black" points="101.34,-173.63 111.34,-170.13 101.34,-166.63 101.34,-173.63"/>
<text xml:space="preserve" text-anchor="middle" x="83.62" y="-173.33" font-family="Times New Roman,serif" font-size="14.00">start</text>
</g>
</g>
</svg>
