<?xml version="1.0" encoding="UTF-8" standalone="no"?>
<!DOCTYPE svg PUBLIC "-//W3C//DTD SVG 1.1//EN"
 "http://www.w3.org/Graphics/SVG/1.1/DTD/svg11.dtd">
<!-- Generated by graphviz version 13.1.2 (20250808.2320)
 -->
<!-- Title: DFA_0_odd1s_2 Pages: 1 -->
<svg width="322pt" height="205pt"
 viewBox="0.00 0.00 322.00 205.00" xmlns="http://www.w3.org/2000/svg" xmlns:xlink="http://www.w3.org/1999/xlink">
<g id="graph0" class="graph" transform="scale(1 1) rotate(0) translate(4 201.45)">
<title>DFA_0_odd1s_2</title>
<polygon fill="white" stroke="none" points="-4,4 -4,-201.45 317.66,-201.45 317.66,4 -4,4"/>
<!-- q4 -->
<g id="node1" class="node">
<title>q4</title>
<ellipse fill="lightgreen" stroke="black" cx="285.34" cy="-150.32" rx="20.13" ry="20.13"/>
<ellipse fill="none" stroke="black" cx="285.34" cy="-150.32" rx="24.13" ry="24.13"/>
<text xml:space="preserve" text-anchor="middle" x="285.34" y="-145.27" font-family="Times New Roman,serif" font-size="14.00">q4</text>
</g>
<!-- dead -->
<g id="node6" class="node">
<title>dead</title>
<ellipse fill="red" stroke="black" cx="285.34" cy="-28.32" rx="28.32" ry="28.32"/>
<text xml:space="preserve" text-anchor="middle" x="285.34" y="-23.27" font-family="Times New Roman,serif" font-size="14.00">dead</text>
</g>
<!-- q4&#45;&gt;dead -->
<g id="edge9" class="edge">
<title>q4&#45;&gt;dead</title>
<path fill="none" stroke="black" d="M285.34,-126.01C285.34,-109.53 285.34,-87.36 285.34,-68.31"/>
<polygon fill="black" stroke="black" points="288.84,-68.44 285.34,-58.44 281.84,-68.44 288.84,-68.44"/>
<text xml:space="preserve" text-anchor="middle" x="274.09" y="-86.36" font-family="Times New Roman,serif" font-size="14.00">0,1,2</text>
</g>
<!-- q0 -->
<g id="node2" class="node">
<title>q0</title>
<ellipse fill="lightblue" stroke="black" cx="111.13" cy="-121.32" rx="20.13" ry="20.13"/>
<text xml:space="preserve" text-anchor="middle" x="111.13" y="-116.27" font-family="Times New Roman,serif" font-size="14.00">q0</text>
</g>
<!-- q1 -->
<g id="node3" class="node">
<title>q1</title>
<ellipse fill="lightblue" stroke="black" cx="111.13" cy="-45.32" rx="20.13" ry="20.13"/>
<text xml:space="preserve" text-anchor="middle" x="111.13" y="-40.27" font-family="Times New Roman,serif" font-size="14.00">q1</text>
</g>
<!-- q0&#45;&gt;q1 -->
<g id="edge2" class="edge">
<title>q0&#45;&gt;q1</title>
<path fill="none" stroke="black" d="M111.13,-100.9C111.13,-93.57 111.13,-85.11 111.13,-77.05"/>
<polygon fill="black" stroke="black" points="114.63,-77.2 111.13,-67.2 107.63,-77.2 114.63,-77.2"/>
<text xml:space="preserve" text-anchor="middle" x="99.88" y="-78.27" font-family="Times New Roman,serif" font-size="14.00">0</text>
</g>
<!-- q0&#45;&gt;dead -->
<g id="edge3" class="edge">
<title>q0&#45;&gt;dead</title>
<path fill="none" stroke="black" d="M131.1,-124.44C157.57,-127.74 206.02,-129.88 239.02,-108.32 254.12,-98.46 264.71,-81.73 271.84,-66.11"/>
<polygon fill="black" stroke="black" points="275.04,-67.55 275.66,-56.97 268.58,-64.85 275.04,-67.55"/>
<text xml:space="preserve" text-anchor="middle" x="194.14" y="-129.4" font-family="Times New Roman,serif" font-size="14.00">1,2</text>
</g>
<!-- q2 -->
<g id="node4" class="node">
<title>q2</title>
<ellipse fill="lightblue" stroke="black" cx="194.14" cy="-66.32" rx="20.13" ry="20.13"/>
<text xml:space="preserve" text-anchor="middle" x="194.14" y="-61.27" font-family="Times New Roman,serif" font-size="14.00">q2</text>
</g>
<!-- q1&#45;&gt;q2 -->
<g id="edge4" class="edge">
<title>q1&#45;&gt;q2</title>
<path fill="none" stroke="black" d="M129.43,-54.71C135.53,-57.62 142.55,-60.53 149.26,-62.32 153.43,-63.43 157.88,-64.24 162.3,-64.84"/>
<polygon fill="black" stroke="black" points="161.87,-68.31 172.17,-65.81 162.56,-61.35 161.87,-68.31"/>
<text xml:space="preserve" text-anchor="middle" x="152.64" y="-66.86" font-family="Times New Roman,serif" font-size="14.00">1</text>
</g>
<!-- q1&#45;&gt;dead -->
<g id="edge5" class="edge">
<title>q1&#45;&gt;dead</title>
<path fill="none" stroke="black" d="M129.47,-36.41C141.59,-30.69 158.35,-23.81 174.01,-20.82 197.72,-16.3 224.75,-18.03 246.13,-20.96"/>
<polygon fill="black" stroke="black" points="245.45,-24.39 255.86,-22.45 246.51,-17.47 245.45,-24.39"/>
<text xml:space="preserve" text-anchor="middle" x="194.14" y="-24.02" font-family="Times New Roman,serif" font-size="14.00">0,2</text>
</g>
<!-- q2&#45;&gt;q4 -->
<g id="edge7" class="edge">
<title>q2&#45;&gt;q4</title>
<path fill="none" stroke="black" d="M209.48,-79.82C222.81,-92.37 242.98,-111.37 259.03,-126.48"/>
<polygon fill="black" stroke="black" points="256.21,-128.63 265.89,-132.94 261.01,-123.53 256.21,-128.63"/>
<text xml:space="preserve" text-anchor="middle" x="235.65" y="-109" font-family="Times New Roman,serif" font-size="14.00">2</text>
</g>
<!-- q2&#45;&gt;q1 -->
<g id="edge6" class="edge">
<title>q2&#45;&gt;q1</title>
<path fill="none" stroke="black" d="M178.27,-53.63C171.86,-48.95 164,-44.22 156.01,-41.82 151.69,-40.52 147.02,-40.01 142.41,-39.99"/>
<polygon fill="black" stroke="black" points="142.48,-36.47 132.76,-40.68 142.98,-43.46 142.48,-36.47"/>
<text xml:space="preserve" text-anchor="middle" x="152.64" y="-45.02" font-family="Times New Roman,serif" font-size="14.00">1</text>
</g>
<!-- q2&#45;&gt;dead -->
<g id="edge8" class="edge">
<title>q2&#45;&gt;dead</title>
<path fill="none" stroke="black" d="M213.19,-58.63C223.35,-54.3 236.4,-48.74 248.54,-43.57"/>
<polygon fill="black" stroke="black" points="249.66,-46.9 257.49,-39.76 246.92,-40.46 249.66,-46.9"/>
<text xml:space="preserve" text-anchor="middle" x="235.65" y="-52.8" font-family="Times New Roman,serif" font-size="14.00">0</text>
</g>
<!-- q3 -->
<g id="node5" class="node">
<title>q3</title>
<ellipse fill="lightblue" stroke="black" cx="194.14" cy="-177.32" rx="20.13" ry="20.13"/>
<text xml:space="preserve" text-anchor="middle" x="194.14" y="-172.27" font-family="Times New Roman,serif" font-size="14.00">q3</text>
</g>
<!-- dead&#45;&gt;dead -->
<g id="edge10" class="edge">
<title>dead&#45;&gt;dead</title>
<path fill="none" stroke="black" d="M276.06,-55.44C275.65,-65.92 278.74,-74.64 285.34,-74.64 289.26,-74.64 291.95,-71.57 293.39,-66.88"/>
<polygon fill="black" stroke="black" points="296.87,-67.26 294.46,-56.94 289.91,-66.51 296.87,-67.26"/>
<text xml:space="preserve" text-anchor="middle" x="285.34" y="-77.84" font-family="Times New Roman,serif" font-size="14.00">0,1,2</text>
</g>
<!-- start -->
<g id="node7" class="node">
<title>start</title>
<polygon fill="red" stroke="none" points="54,-139.32 0,-139.32 0,-103.32 54,-103.32 54,-139.32"/>
</g>
<!-- start&#45;&gt;q0 -->
<g id="edge1" class="edge">
<title>start&#45;&gt;q0</title>
<path fill="none" stroke="black" d="M53.99,-121.32C62.04,-121.32 70.98,-121.32 79.33,-121.32"/>
<polygon fill="black" stroke="black" points="79.05,-124.82 89.05,-121.32 79.05,-117.82 79.05,-124.82"/>
</g>
</g>
</svg>
