<?xml version="1.0" encoding="UTF-8" standalone="no"?>
<!DOCTYPE svg PUBLIC "-//W3C//DTD SVG 1.1//EN"
 "http://www.w3.org/Graphics/SVG/1.1/DTD/svg11.dtd">
<!-- Generated by graphviz version 13.1.2 (20250808.2320)
 -->
<!-- Title: DFA Pages: 1 -->
<svg width="346pt" height="210pt"
 viewBox="0.00 0.00 346.00 210.00" xmlns="http://www.w3.org/2000/svg" xmlns:xlink="http://www.w3.org/1999/xlink">
<g id="graph0" class="graph" transform="scale(1 1) rotate(0) translate(4 205.76)">
<title>DFA</title>
<polygon fill="white" stroke="none" points="-4,4 -4,-205.76 341.9,-205.76 341.9,4 -4,4"/>
<!-- q3 -->
<g id="node1" class="node">
<title>q3</title>
<ellipse fill="none" stroke="black" cx="313.77" cy="-143.13" rx="20.13" ry="20.13"/>
<ellipse fill="none" stroke="black" cx="313.77" cy="-143.13" rx="24.13" ry="24.13"/>
<text xml:space="preserve" text-anchor="middle" x="313.77" y="-138.08" font-family="Times New Roman,serif" font-size="14.00">q3</text>
</g>
<!-- q3&#45;&gt;q3 -->
<g id="edge8" class="edge">
<title>q3&#45;&gt;q3</title>
<path fill="none" stroke="black" d="M305.37,-166.1C304.57,-176.38 307.37,-185.26 313.77,-185.26 317.57,-185.26 320.1,-182.13 321.36,-177.43"/>
<polygon fill="black" stroke="black" points="324.84,-177.83 322.06,-167.61 317.86,-177.34 324.84,-177.83"/>
<text xml:space="preserve" text-anchor="middle" x="313.77" y="-188.46" font-family="Times New Roman,serif" font-size="14.00">0,1</text>
</g>
<!-- q0 -->
<g id="node2" class="node">
<title>q0</title>
<ellipse fill="none" stroke="black" cx="60.73" cy="-20.13" rx="20.13" ry="20.13"/>
<text xml:space="preserve" text-anchor="middle" x="60.73" y="-15.08" font-family="Times New Roman,serif" font-size="14.00">q0</text>
</g>
<!-- q1 -->
<g id="node3" class="node">
<title>q1</title>
<ellipse fill="none" stroke="black" cx="143.74" cy="-52.13" rx="20.13" ry="20.13"/>
<text xml:space="preserve" text-anchor="middle" x="143.74" y="-47.08" font-family="Times New Roman,serif" font-size="14.00">q1</text>
</g>
<!-- q0&#45;&gt;q1 -->
<g id="edge2" class="edge">
<title>q0&#45;&gt;q1</title>
<path fill="none" stroke="black" d="M79.71,-27.23C89.81,-31.22 102.66,-36.3 114.11,-40.82"/>
<polygon fill="black" stroke="black" points="112.54,-43.96 123.13,-44.38 115.11,-37.45 112.54,-43.96"/>
<text xml:space="preserve" text-anchor="middle" x="102.24" y="-40.29" font-family="Times New Roman,serif" font-size="14.00">1</text>
</g>
<!-- qd -->
<g id="node5" class="node">
<title>qd</title>
<ellipse fill="none" stroke="black" cx="313.77" cy="-46.13" rx="20.13" ry="20.13"/>
<text xml:space="preserve" text-anchor="middle" x="313.77" y="-41.08" font-family="Times New Roman,serif" font-size="14.00">qd</text>
</g>
<!-- q0&#45;&gt;qd -->
<g id="edge3" class="edge">
<title>q0&#45;&gt;qd</title>
<path fill="none" stroke="black" d="M81.36,-19.99C101.95,-20.01 135.25,-20.51 163.87,-23.13 205.27,-26.92 252.64,-34.87 282.62,-40.35"/>
<polygon fill="black" stroke="black" points="281.63,-43.73 292.1,-42.11 282.91,-36.84 281.63,-43.73"/>
<text xml:space="preserve" text-anchor="middle" x="185.25" y="-28.83" font-family="Times New Roman,serif" font-size="14.00">0</text>
</g>
<!-- q2 -->
<g id="node4" class="node">
<title>q2</title>
<ellipse fill="none" stroke="black" cx="226.76" cy="-105.13" rx="20.13" ry="20.13"/>
<text xml:space="preserve" text-anchor="middle" x="226.76" y="-100.08" font-family="Times New Roman,serif" font-size="14.00">q2</text>
</g>
<!-- q1&#45;&gt;q2 -->
<g id="edge4" class="edge">
<title>q1&#45;&gt;q2</title>
<path fill="none" stroke="black" d="M161.14,-62.86C172.23,-70.11 187.11,-79.85 199.8,-88.15"/>
<polygon fill="black" stroke="black" points="197.83,-91.05 208.12,-93.59 201.67,-85.19 197.83,-91.05"/>
<text xml:space="preserve" text-anchor="middle" x="185.25" y="-83.42" font-family="Times New Roman,serif" font-size="14.00">0</text>
</g>
<!-- q1&#45;&gt;qd -->
<g id="edge5" class="edge">
<title>q1&#45;&gt;qd</title>
<path fill="none" stroke="black" d="M164.35,-51.43C193.31,-50.4 247.79,-48.45 282.08,-47.23"/>
<polygon fill="black" stroke="black" points="281.91,-50.74 291.78,-46.88 281.66,-43.74 281.91,-50.74"/>
<text xml:space="preserve" text-anchor="middle" x="226.76" y="-53.03" font-family="Times New Roman,serif" font-size="14.00">1</text>
</g>
<!-- q2&#45;&gt;q3 -->
<g id="edge6" class="edge">
<title>q2&#45;&gt;q3</title>
<path fill="none" stroke="black" d="M245.37,-113C255.68,-117.61 269,-123.57 281.07,-128.96"/>
<polygon fill="black" stroke="black" points="279.32,-132.01 289.87,-132.9 282.17,-125.62 279.32,-132.01"/>
<text xml:space="preserve" text-anchor="middle" x="268.26" y="-127.33" font-family="Times New Roman,serif" font-size="14.00">1</text>
</g>
<!-- q2&#45;&gt;qd -->
<g id="edge7" class="edge">
<title>q2&#45;&gt;qd</title>
<path fill="none" stroke="black" d="M243.75,-94.03C256.02,-85.52 273.2,-73.59 287.35,-63.77"/>
<polygon fill="black" stroke="black" points="289.1,-66.82 295.32,-58.24 285.11,-61.07 289.1,-66.82"/>
<text xml:space="preserve" text-anchor="middle" x="268.26" y="-82.36" font-family="Times New Roman,serif" font-size="14.00">0</text>
</g>
<!-- qd&#45;&gt;qd -->
<g id="edge9" class="edge">
<title>qd&#45;&gt;qd</title>
<path fill="none" stroke="black" d="M305.59,-64.97C304.2,-75.06 306.92,-84.26 313.77,-84.26 317.83,-84.26 320.44,-81.02 321.6,-76.27"/>
<polygon fill="black" stroke="black" points="325.1,-76.58 321.9,-66.48 318.1,-76.37 325.1,-76.58"/>
<text xml:space="preserve" text-anchor="middle" x="313.77" y="-87.46" font-family="Times New Roman,serif" font-size="14.00">0,1</text>
</g>
<!-- start -->
<g id="node6" class="node">
<title>start</title>
<ellipse fill="black" stroke="black" cx="1.8" cy="-20.13" rx="1.8" ry="1.8"/>
</g>
<!-- start&#45;&gt;q0 -->
<g id="edge1" class="edge">
<title>start&#45;&gt;q0</title>
<path fill="none" stroke="black" d="M3.79,-20.13C7.01,-20.13 17.65,-20.13 28.79,-20.13"/>
<polygon fill="black" stroke="black" points="28.79,-23.63 38.79,-20.13 28.79,-16.63 28.79,-23.63"/>
</g>
</g>
</svg>
