<?xml version="1.0" encoding="UTF-8" standalone="no"?>
<!DOCTYPE svg PUBLIC "-//W3C//DTD SVG 1.1//EN"
 "http://www.w3.org/Graphics/SVG/1.1/DTD/svg11.dtd">
<!-- Generated by graphviz version 13.1.2 (20250808.2320)
 -->
<!-- Title: DFA Pages: 1 -->
<svg width="222pt" height="242pt"
 viewBox="0.00 0.00 222.00 242.00" xmlns="http://www.w3.org/2000/svg" xmlns:xlink="http://www.w3.org/1999/xlink">
<g id="graph0" class="graph" transform="scale(1 1) rotate(0) translate(4 237.76)">
<title>DFA</title>
<polygon fill="white" stroke="none" points="-4,4 -4,-237.76 218.29,-237.76 218.29,4 -4,4"/>
<!-- q3 -->
<g id="node1" class="node">
<title>q3</title>
<ellipse fill="none" stroke="black" cx="107.14" cy="-24.13" rx="20.13" ry="20.13"/>
<ellipse fill="none" stroke="black" cx="107.14" cy="-24.13" rx="24.13" ry="24.13"/>
<text xml:space="preserve" text-anchor="middle" x="107.14" y="-19.08" font-family="Times New Roman,serif" font-size="14.00">q3</text>
</g>
<!-- q3&#45;&gt;q3 -->
<g id="edge9" class="edge">
<title>q3&#45;&gt;q3</title>
<path fill="none" stroke="black" d="M98.74,-47.1C97.94,-57.38 100.74,-66.26 107.14,-66.26 110.94,-66.26 113.47,-63.13 114.74,-58.43"/>
<polygon fill="black" stroke="black" points="118.22,-58.83 115.43,-48.61 111.23,-58.34 118.22,-58.83"/>
<text xml:space="preserve" text-anchor="middle" x="107.14" y="-69.46" font-family="Times New Roman,serif" font-size="14.00">1</text>
</g>
<!-- qd -->
<g id="node5" class="node">
<title>qd</title>
<ellipse fill="none" stroke="black" cx="194.16" cy="-24.13" rx="20.13" ry="20.13"/>
<text xml:space="preserve" text-anchor="middle" x="194.16" y="-19.08" font-family="Times New Roman,serif" font-size="14.00">qd</text>
</g>
<!-- q3&#45;&gt;qd -->
<g id="edge8" class="edge">
<title>q3&#45;&gt;qd</title>
<path fill="none" stroke="black" d="M131.37,-24.13C140.91,-24.13 152.1,-24.13 162.31,-24.13"/>
<polygon fill="black" stroke="black" points="162.18,-27.63 172.18,-24.13 162.18,-20.63 162.18,-27.63"/>
<text xml:space="preserve" text-anchor="middle" x="152.65" y="-27.33" font-family="Times New Roman,serif" font-size="14.00">0</text>
</g>
<!-- q0 -->
<g id="node2" class="node">
<title>q0</title>
<ellipse fill="none" stroke="black" cx="107.14" cy="-179.13" rx="20.13" ry="20.13"/>
<text xml:space="preserve" text-anchor="middle" x="107.14" y="-174.08" font-family="Times New Roman,serif" font-size="14.00">q0</text>
</g>
<!-- q0&#45;&gt;q0 -->
<g id="edge3" class="edge">
<title>q0&#45;&gt;q0</title>
<path fill="none" stroke="black" d="M98.96,-197.97C97.57,-208.06 100.3,-217.26 107.14,-217.26 111.21,-217.26 113.82,-214.02 114.98,-209.27"/>
<polygon fill="black" stroke="black" points="118.47,-209.58 115.28,-199.48 111.47,-209.37 118.47,-209.58"/>
<text xml:space="preserve" text-anchor="middle" x="107.14" y="-220.46" font-family="Times New Roman,serif" font-size="14.00">1</text>
</g>
<!-- q1 -->
<g id="node3" class="node">
<title>q1</title>
<ellipse fill="none" stroke="black" cx="194.16" cy="-152.13" rx="20.13" ry="20.13"/>
<text xml:space="preserve" text-anchor="middle" x="194.16" y="-147.08" font-family="Times New Roman,serif" font-size="14.00">q1</text>
</g>
<!-- q0&#45;&gt;q1 -->
<g id="edge2" class="edge">
<title>q0&#45;&gt;q1</title>
<path fill="none" stroke="black" d="M123.61,-166.86C130.95,-161.77 140.11,-156.41 149.27,-153.63 153.38,-152.38 157.81,-151.61 162.21,-151.17"/>
<polygon fill="black" stroke="black" points="162.23,-154.67 172.07,-150.72 161.92,-147.68 162.23,-154.67"/>
<text xml:space="preserve" text-anchor="middle" x="152.65" y="-156.83" font-family="Times New Roman,serif" font-size="14.00">0</text>
</g>
<!-- q1&#45;&gt;q0 -->
<g id="edge5" class="edge">
<title>q1&#45;&gt;q0</title>
<path fill="none" stroke="black" d="M176.17,-161.54C169.98,-164.65 162.83,-167.89 156.02,-170.13 150.44,-171.97 144.37,-173.48 138.47,-174.69"/>
<polygon fill="black" stroke="black" points="138.24,-171.18 129.03,-176.41 139.5,-178.06 138.24,-171.18"/>
<text xml:space="preserve" text-anchor="middle" x="152.65" y="-175.23" font-family="Times New Roman,serif" font-size="14.00">1</text>
</g>
<!-- q2 -->
<g id="node4" class="node">
<title>q2</title>
<ellipse fill="none" stroke="black" cx="20.13" cy="-119.13" rx="20.13" ry="20.13"/>
<text xml:space="preserve" text-anchor="middle" x="20.13" y="-114.08" font-family="Times New Roman,serif" font-size="14.00">q2</text>
</g>
<!-- q1&#45;&gt;q2 -->
<g id="edge4" class="edge">
<title>q1&#45;&gt;q2</title>
<path fill="none" stroke="black" d="M174.67,-145.76C162.48,-141.77 146.08,-136.8 131.27,-133.63 104.7,-127.95 74.01,-124.13 51.79,-121.84"/>
<polygon fill="black" stroke="black" points="52.19,-118.36 41.9,-120.87 51.51,-125.33 52.19,-118.36"/>
<text xml:space="preserve" text-anchor="middle" x="107.14" y="-136.83" font-family="Times New Roman,serif" font-size="14.00">0</text>
</g>
<!-- q2&#45;&gt;q3 -->
<g id="edge6" class="edge">
<title>q2&#45;&gt;q3</title>
<path fill="none" stroke="black" d="M34.41,-104.29C47.42,-89.76 67.49,-67.32 83.1,-49.88"/>
<polygon fill="black" stroke="black" points="85.28,-52.69 89.34,-42.91 80.07,-48.02 85.28,-52.69"/>
<text xml:space="preserve" text-anchor="middle" x="61.64" y="-80.52" font-family="Times New Roman,serif" font-size="14.00">0</text>
</g>
<!-- q2&#45;&gt;q0 -->
<g id="edge7" class="edge">
<title>q2&#45;&gt;q0</title>
<path fill="none" stroke="black" d="M37.12,-130.42C49.47,-139.13 66.79,-151.36 80.99,-161.38"/>
<polygon fill="black" stroke="black" points="78.8,-164.12 88.99,-167.02 82.84,-158.4 78.8,-164.12"/>
<text xml:space="preserve" text-anchor="middle" x="61.64" y="-152.33" font-family="Times New Roman,serif" font-size="14.00">1</text>
</g>
<!-- qd&#45;&gt;qd -->
<g id="edge10" class="edge">
<title>qd&#45;&gt;qd</title>
<path fill="none" stroke="black" d="M186.69,-42.97C185.43,-53.06 187.91,-62.26 194.16,-62.26 197.86,-62.26 200.24,-59.02 201.3,-54.27"/>
<polygon fill="black" stroke="black" points="204.8,-54.57 201.57,-44.48 197.8,-54.38 204.8,-54.57"/>
<text xml:space="preserve" text-anchor="middle" x="194.16" y="-65.46" font-family="Times New Roman,serif" font-size="14.00">0,1</text>
</g>
<!-- start -->
<g id="node6" class="node">
<title>start</title>
<ellipse fill="black" stroke="black" cx="20.13" cy="-184.13" rx="1.8" ry="1.8"/>
</g>
<!-- start&#45;&gt;q0 -->
<g id="edge1" class="edge">
<title>start&#45;&gt;q0</title>
<path fill="none" stroke="black" d="M22.33,-184.06C28.16,-183.72 54.04,-182.2 75.52,-180.93"/>
<polygon fill="black" stroke="black" points="75.55,-184.44 85.33,-180.36 75.14,-177.45 75.55,-184.44"/>
</g>
</g>
</svg>
