<?xml version="1.0" encoding="UTF-8" standalone="no"?>
<!DOCTYPE svg PUBLIC "-//W3C//DTD SVG 1.1//EN"
 "http://www.w3.org/Graphics/SVG/1.1/DTD/svg11.dtd">
<!-- Generated by graphviz version 13.1.2 (20250808.2320)
 -->
<!-- Title: DFA Pages: 1 -->
<svg width="305pt" height="216pt"
 viewBox="0.00 0.00 305.00 216.00" xmlns="http://www.w3.org/2000/svg" xmlns:xlink="http://www.w3.org/1999/xlink">
<g id="graph0" class="graph" transform="scale(1 1) rotate(0) translate(4 212.05)">
<title>DFA</title>
<polygon fill="white" stroke="none" points="-4,4 -4,-212.05 301.3,-212.05 301.3,4 -4,4"/>
<!-- q4 -->
<g id="node1" class="node">
<title>q4</title>
<ellipse fill="none" stroke="black" cx="107.14" cy="-117.13" rx="20.13" ry="20.13"/>
<ellipse fill="none" stroke="black" cx="107.14" cy="-117.13" rx="24.13" ry="24.13"/>
<text xml:space="preserve" text-anchor="middle" x="107.14" y="-112.08" font-family="Times New Roman,serif" font-size="14.00">q4</text>
</g>
<!-- q4&#45;&gt;q4 -->
<g id="edge10" class="edge">
<title>q4&#45;&gt;q4</title>
<path fill="none" stroke="black" d="M98.74,-140.1C97.94,-150.38 100.74,-159.26 107.14,-159.26 110.94,-159.26 113.47,-156.13 114.74,-151.43"/>
<polygon fill="black" stroke="black" points="118.22,-151.83 115.43,-141.61 111.23,-151.34 118.22,-151.83"/>
<text xml:space="preserve" text-anchor="middle" x="107.14" y="-162.46" font-family="Times New Roman,serif" font-size="14.00">0,1</text>
</g>
<!-- q0 -->
<g id="node2" class="node">
<title>q0</title>
<ellipse fill="none" stroke="black" cx="107.14" cy="-20.13" rx="20.13" ry="20.13"/>
<text xml:space="preserve" text-anchor="middle" x="107.14" y="-15.08" font-family="Times New Roman,serif" font-size="14.00">q0</text>
</g>
<!-- q0&#45;&gt;q0 -->
<g id="edge2" class="edge">
<title>q0&#45;&gt;q0</title>
<path fill="none" stroke="black" d="M98.96,-38.97C97.57,-49.06 100.3,-58.26 107.14,-58.26 111.21,-58.26 113.82,-55.02 114.98,-50.27"/>
<polygon fill="black" stroke="black" points="118.47,-50.58 115.28,-40.48 111.47,-50.37 118.47,-50.58"/>
<text xml:space="preserve" text-anchor="middle" x="107.14" y="-61.46" font-family="Times New Roman,serif" font-size="14.00">0</text>
</g>
<!-- q1 -->
<g id="node3" class="node">
<title>q1</title>
<ellipse fill="none" stroke="black" cx="194.16" cy="-60.13" rx="20.13" ry="20.13"/>
<text xml:space="preserve" text-anchor="middle" x="194.16" y="-55.08" font-family="Times New Roman,serif" font-size="14.00">q1</text>
</g>
<!-- q0&#45;&gt;q1 -->
<g id="edge3" class="edge">
<title>q0&#45;&gt;q1</title>
<path fill="none" stroke="black" d="M125.76,-28.42C137.16,-33.78 152.24,-40.88 165.25,-47"/>
<polygon fill="black" stroke="black" points="163.66,-50.12 174.19,-51.21 166.64,-43.78 163.66,-50.12"/>
<text xml:space="preserve" text-anchor="middle" x="152.65" y="-45.73" font-family="Times New Roman,serif" font-size="14.00">1</text>
</g>
<!-- q1&#45;&gt;q0 -->
<g id="edge4" class="edge">
<title>q1&#45;&gt;q0</title>
<path fill="none" stroke="black" d="M182.67,-43.15C176.19,-34.36 167.03,-24.47 156.02,-19.63 150.55,-17.22 144.38,-16.21 138.32,-15.99"/>
<polygon fill="black" stroke="black" points="138.43,-12.49 128.57,-16.35 138.69,-19.48 138.43,-12.49"/>
<text xml:space="preserve" text-anchor="middle" x="152.65" y="-22.83" font-family="Times New Roman,serif" font-size="14.00">0</text>
</g>
<!-- q2 -->
<g id="node4" class="node">
<title>q2</title>
<ellipse fill="none" stroke="black" cx="277.17" cy="-132.13" rx="20.13" ry="20.13"/>
<text xml:space="preserve" text-anchor="middle" x="277.17" y="-127.08" font-family="Times New Roman,serif" font-size="14.00">q2</text>
</g>
<!-- q1&#45;&gt;q2 -->
<g id="edge5" class="edge">
<title>q1&#45;&gt;q2</title>
<path fill="none" stroke="black" d="M209.64,-73C221.66,-83.69 238.98,-99.08 252.94,-111.49"/>
<polygon fill="black" stroke="black" points="250.61,-114.1 260.41,-118.12 255.26,-108.86 250.61,-114.1"/>
<text xml:space="preserve" text-anchor="middle" x="235.66" y="-101.49" font-family="Times New Roman,serif" font-size="14.00">1</text>
</g>
<!-- q2&#45;&gt;q2 -->
<g id="edge7" class="edge">
<title>q2&#45;&gt;q2</title>
<path fill="none" stroke="black" d="M269.71,-150.97C268.44,-161.06 270.93,-170.26 277.17,-170.26 280.87,-170.26 283.26,-167.02 284.32,-162.27"/>
<polygon fill="black" stroke="black" points="287.81,-162.57 284.59,-152.48 280.81,-162.38 287.81,-162.57"/>
<text xml:space="preserve" text-anchor="middle" x="277.17" y="-173.46" font-family="Times New Roman,serif" font-size="14.00">1</text>
</g>
<!-- q3 -->
<g id="node5" class="node">
<title>q3</title>
<ellipse fill="none" stroke="black" cx="20.13" cy="-117.13" rx="20.13" ry="20.13"/>
<text xml:space="preserve" text-anchor="middle" x="20.13" y="-112.08" font-family="Times New Roman,serif" font-size="14.00">q3</text>
</g>
<!-- q2&#45;&gt;q3 -->
<g id="edge6" class="edge">
<title>q2&#45;&gt;q3</title>
<path fill="none" stroke="black" d="M260.1,-143.69C226.27,-166.51 145.67,-212.83 83.01,-185.13 63.97,-176.71 48.27,-159.22 37.45,-144.09"/>
<polygon fill="black" stroke="black" points="40.39,-142.19 31.9,-135.86 34.59,-146.1 40.39,-142.19"/>
<text xml:space="preserve" text-anchor="middle" x="152.65" y="-194.75" font-family="Times New Roman,serif" font-size="14.00">0</text>
</g>
<!-- q3&#45;&gt;q4 -->
<g id="edge9" class="edge">
<title>q3&#45;&gt;q4</title>
<path fill="none" stroke="black" d="M40.42,-117.13C49.53,-117.13 60.7,-117.13 71.22,-117.13"/>
<polygon fill="black" stroke="black" points="71.17,-120.63 81.17,-117.13 71.17,-113.63 71.17,-120.63"/>
<text xml:space="preserve" text-anchor="middle" x="61.64" y="-120.33" font-family="Times New Roman,serif" font-size="14.00">1</text>
</g>
<!-- q3&#45;&gt;q0 -->
<g id="edge8" class="edge">
<title>q3&#45;&gt;q0</title>
<path fill="none" stroke="black" d="M34.04,-102.4C47.71,-86.8 69.49,-61.96 85.53,-43.65"/>
<polygon fill="black" stroke="black" points="88.15,-45.97 92.11,-36.14 82.89,-41.35 88.15,-45.97"/>
<text xml:space="preserve" text-anchor="middle" x="61.64" y="-77.64" font-family="Times New Roman,serif" font-size="14.00">0</text>
</g>
<!-- start -->
<g id="node6" class="node">
<title>start</title>
<ellipse fill="black" stroke="black" cx="20.13" cy="-20.13" rx="1.8" ry="1.8"/>
</g>
<!-- start&#45;&gt;q0 -->
<g id="edge1" class="edge">
<title>start&#45;&gt;q0</title>
<path fill="none" stroke="black" d="M22.33,-20.13C28.16,-20.13 54.04,-20.13 75.52,-20.13"/>
<polygon fill="black" stroke="black" points="75.33,-23.63 85.33,-20.13 75.33,-16.63 75.33,-23.63"/>
</g>
</g>
</svg>
