<?xml version="1.0" encoding="UTF-8" standalone="no"?>
<!DOCTYPE svg PUBLIC "-//W3C//DTD SVG 1.1//EN"
 "http://www.w3.org/Graphics/SVG/1.1/DTD/svg11.dtd">
<!-- Generated by graphviz version 13.1.2 (20250808.2320)
 -->
<!-- Title: DFA_not_110 Pages: 1 -->
<svg width="412pt" height="91pt"
 viewBox="0.00 0.00 412.00 91.00" xmlns="http://www.w3.org/2000/svg" xmlns:xlink="http://www.w3.org/1999/xlink">
<g id="graph0" class="graph" transform="scale(1 1) rotate(0) translate(4 86.76)">
<title>DFA_not_110</title>
<polygon fill="white" stroke="none" points="-4,4 -4,-86.76 408.3,-86.76 408.3,4 -4,4"/>
<!-- q0 -->
<g id="node1" class="node">
<title>q0</title>
<ellipse fill="none" stroke="black" cx="115.13" cy="-24.13" rx="20.13" ry="20.13"/>
<ellipse fill="none" stroke="black" cx="115.13" cy="-24.13" rx="24.13" ry="24.13"/>
<text xml:space="preserve" text-anchor="middle" x="115.13" y="-19.08" font-family="Times New Roman,serif" font-size="14.00">q0</text>
</g>
<!-- q0&#45;&gt;q0 -->
<g id="edge2" class="edge">
<title>q0&#45;&gt;q0</title>
<path fill="none" stroke="black" d="M107.26,-47.1C106.51,-57.38 109.14,-66.26 115.13,-66.26 118.69,-66.26 121.06,-63.13 122.24,-58.43"/>
<polygon fill="black" stroke="black" points="125.73,-58.82 122.9,-48.61 118.74,-58.35 125.73,-58.82"/>
<text xml:space="preserve" text-anchor="middle" x="115.13" y="-69.46" font-family="Times New Roman,serif" font-size="14.00">0</text>
</g>
<!-- q1 -->
<g id="node2" class="node">
<title>q1</title>
<ellipse fill="none" stroke="black" cx="206.14" cy="-24.13" rx="20.13" ry="20.13"/>
<ellipse fill="none" stroke="black" cx="206.14" cy="-24.13" rx="24.13" ry="24.13"/>
<text xml:space="preserve" text-anchor="middle" x="206.14" y="-19.08" font-family="Times New Roman,serif" font-size="14.00">q1</text>
</g>
<!-- q0&#45;&gt;q1 -->
<g id="edge3" class="edge">
<title>q0&#45;&gt;q1</title>
<path fill="none" stroke="black" d="M139.52,-24.13C148.95,-24.13 160.03,-24.13 170.37,-24.13"/>
<polygon fill="black" stroke="black" points="170.09,-27.63 180.09,-24.13 170.09,-20.63 170.09,-27.63"/>
<text xml:space="preserve" text-anchor="middle" x="160.64" y="-27.33" font-family="Times New Roman,serif" font-size="14.00">1</text>
</g>
<!-- q1&#45;&gt;q0 -->
<g id="edge4" class="edge">
<title>q1&#45;&gt;q0</title>
<path fill="none" stroke="black" d="M186.55,-10.03C177.89,-5.08 167.3,-1.27 157.26,-3.63 153.69,-4.47 150.07,-5.67 146.54,-7.08"/>
<polygon fill="black" stroke="black" points="145.36,-3.77 137.72,-11.11 148.27,-10.13 145.36,-3.77"/>
<text xml:space="preserve" text-anchor="middle" x="160.64" y="-6.83" font-family="Times New Roman,serif" font-size="14.00">0</text>
</g>
<!-- q2 -->
<g id="node3" class="node">
<title>q2</title>
<ellipse fill="none" stroke="black" cx="297.16" cy="-24.13" rx="20.13" ry="20.13"/>
<ellipse fill="none" stroke="black" cx="297.16" cy="-24.13" rx="24.13" ry="24.13"/>
<text xml:space="preserve" text-anchor="middle" x="297.16" y="-19.08" font-family="Times New Roman,serif" font-size="14.00">q2</text>
</g>
<!-- q1&#45;&gt;q2 -->
<g id="edge5" class="edge">
<title>q1&#45;&gt;q2</title>
<path fill="none" stroke="black" d="M230.53,-24.13C239.96,-24.13 251.04,-24.13 261.38,-24.13"/>
<polygon fill="black" stroke="black" points="261.1,-27.63 271.1,-24.13 261.1,-20.63 261.1,-27.63"/>
<text xml:space="preserve" text-anchor="middle" x="251.65" y="-27.33" font-family="Times New Roman,serif" font-size="14.00">1</text>
</g>
<!-- q2&#45;&gt;q2 -->
<g id="edge7" class="edge">
<title>q2&#45;&gt;q2</title>
<path fill="none" stroke="black" d="M288.76,-47.1C287.96,-57.38 290.76,-66.26 297.16,-66.26 300.96,-66.26 303.49,-63.13 304.75,-58.43"/>
<polygon fill="black" stroke="black" points="308.23,-58.83 305.45,-48.61 301.25,-58.34 308.23,-58.83"/>
<text xml:space="preserve" text-anchor="middle" x="297.16" y="-69.46" font-family="Times New Roman,serif" font-size="14.00">1</text>
</g>
<!-- q3 -->
<g id="node4" class="node">
<title>q3</title>
<ellipse fill="none" stroke="black" cx="384.17" cy="-24.13" rx="20.13" ry="20.13"/>
<text xml:space="preserve" text-anchor="middle" x="384.17" y="-19.08" font-family="Times New Roman,serif" font-size="14.00">q3</text>
</g>
<!-- q2&#45;&gt;q3 -->
<g id="edge6" class="edge">
<title>q2&#45;&gt;q3</title>
<path fill="none" stroke="black" d="M321.39,-24.13C330.93,-24.13 342.11,-24.13 352.32,-24.13"/>
<polygon fill="black" stroke="black" points="352.19,-27.63 362.19,-24.13 352.19,-20.63 352.19,-27.63"/>
<text xml:space="preserve" text-anchor="middle" x="342.66" y="-27.33" font-family="Times New Roman,serif" font-size="14.00">0</text>
</g>
<!-- q3&#45;&gt;q3 -->
<g id="edge8" class="edge">
<title>q3&#45;&gt;q3</title>
<path fill="none" stroke="black" d="M376.71,-42.97C375.44,-53.06 377.93,-62.26 384.17,-62.26 387.87,-62.26 390.26,-59.02 391.32,-54.27"/>
<polygon fill="black" stroke="black" points="394.81,-54.57 391.59,-44.48 387.81,-54.38 394.81,-54.57"/>
<text xml:space="preserve" text-anchor="middle" x="384.17" y="-65.46" font-family="Times New Roman,serif" font-size="14.00">0,1</text>
</g>
<g id="node5" class="node">
<title></title>
</g>
<!-- &#45;&gt;q0 -->
<g id="edge1" class="edge">
<title>&#45;&gt;q0</title>
<path fill="none" stroke="black" d="M53.84,-24.13C61.88,-24.13 70.88,-24.13 79.42,-24.13"/>
<polygon fill="black" stroke="black" points="79.14,-27.63 89.14,-24.13 79.14,-20.63 79.14,-27.63"/>
</g>
</g>
</svg>
