<?xml version="1.0" encoding="UTF-8" standalone="no"?>
<!DOCTYPE svg PUBLIC "-//W3C//DTD SVG 1.1//EN"
 "http://www.w3.org/Graphics/SVG/1.1/DTD/svg11.dtd">
<!-- Generated by graphviz version 13.1.2 (20250808.2320)
 -->
<!-- Title: DFA_start_01_end_11 Pages: 1 -->
<svg width="396pt" height="213pt"
 viewBox="0.00 0.00 396.00 213.00" xmlns="http://www.w3.org/2000/svg" xmlns:xlink="http://www.w3.org/1999/xlink">
<g id="graph0" class="graph" transform="scale(1 1) rotate(0) translate(4 208.76)">
<title>DFA_start_01_end_11</title>
<polygon fill="white" stroke="none" points="-4,4 -4,-208.76 392.3,-208.76 392.3,4 -4,4"/>
<!-- q4 -->
<g id="node1" class="node">
<title>q4</title>
<ellipse fill="none" stroke="black" cx="198.14" cy="-146.13" rx="20.13" ry="20.13"/>
<ellipse fill="none" stroke="black" cx="198.14" cy="-146.13" rx="24.13" ry="24.13"/>
<text xml:space="preserve" text-anchor="middle" x="198.14" y="-141.08" font-family="Times New Roman,serif" font-size="14.00">q4</text>
</g>
<!-- q4&#45;&gt;q4 -->
<g id="edge11" class="edge">
<title>q4&#45;&gt;q4</title>
<path fill="none" stroke="black" d="M189.74,-169.1C188.94,-179.38 191.74,-188.26 198.14,-188.26 201.94,-188.26 204.47,-185.13 205.74,-180.43"/>
<polygon fill="black" stroke="black" points="209.22,-180.83 206.43,-170.61 202.23,-180.34 209.22,-180.83"/>
<text xml:space="preserve" text-anchor="middle" x="198.14" y="-191.46" font-family="Times New Roman,serif" font-size="14.00">1</text>
</g>
<!-- q2 -->
<g id="node4" class="node">
<title>q2</title>
<ellipse fill="none" stroke="black" cx="285.16" cy="-113.13" rx="20.13" ry="20.13"/>
<text xml:space="preserve" text-anchor="middle" x="285.16" y="-108.08" font-family="Times New Roman,serif" font-size="14.00">q2</text>
</g>
<!-- q4&#45;&gt;q2 -->
<g id="edge10" class="edge">
<title>q4&#45;&gt;q2</title>
<path fill="none" stroke="black" d="M221.04,-137.63C231.51,-133.57 244.2,-128.64 255.44,-124.28"/>
<polygon fill="black" stroke="black" points="256.6,-127.58 264.65,-120.7 254.07,-121.06 256.6,-127.58"/>
<text xml:space="preserve" text-anchor="middle" x="243.65" y="-132.83" font-family="Times New Roman,serif" font-size="14.00">0</text>
</g>
<!-- q0 -->
<g id="node2" class="node">
<title>q0</title>
<ellipse fill="none" stroke="black" cx="111.13" cy="-36.13" rx="20.13" ry="20.13"/>
<text xml:space="preserve" text-anchor="middle" x="111.13" y="-31.08" font-family="Times New Roman,serif" font-size="14.00">q0</text>
</g>
<!-- q1 -->
<g id="node3" class="node">
<title>q1</title>
<ellipse fill="none" stroke="black" cx="198.14" cy="-75.13" rx="20.13" ry="20.13"/>
<text xml:space="preserve" text-anchor="middle" x="198.14" y="-70.08" font-family="Times New Roman,serif" font-size="14.00">q1</text>
</g>
<!-- q0&#45;&gt;q1 -->
<g id="edge3" class="edge">
<title>q0&#45;&gt;q1</title>
<path fill="none" stroke="black" d="M129.75,-44.21C141.07,-49.41 156.03,-56.27 168.98,-62.21"/>
<polygon fill="black" stroke="black" points="167.33,-65.31 177.88,-66.3 170.25,-58.94 167.33,-65.31"/>
<text xml:space="preserve" text-anchor="middle" x="152.64" y="-58.83" font-family="Times New Roman,serif" font-size="14.00">0</text>
</g>
<!-- q5 -->
<g id="node6" class="node">
<title>q5</title>
<ellipse fill="none" stroke="black" cx="285.16" cy="-20.13" rx="20.13" ry="20.13"/>
<text xml:space="preserve" text-anchor="middle" x="285.16" y="-15.08" font-family="Times New Roman,serif" font-size="14.00">q5</text>
</g>
<!-- q0&#45;&gt;q5 -->
<g id="edge2" class="edge">
<title>q0&#45;&gt;q5</title>
<path fill="none" stroke="black" d="M131.63,-33.99C143.81,-32.67 159.82,-30.99 174.01,-29.63 200.77,-27.07 231.22,-24.47 253.31,-22.64"/>
<polygon fill="black" stroke="black" points="253.46,-26.14 263.14,-21.83 252.89,-19.16 253.46,-26.14"/>
<text xml:space="preserve" text-anchor="middle" x="198.14" y="-32.83" font-family="Times New Roman,serif" font-size="14.00">1</text>
</g>
<!-- q1&#45;&gt;q2 -->
<g id="edge5" class="edge">
<title>q1&#45;&gt;q2</title>
<path fill="none" stroke="black" d="M216.76,-83C228.08,-88.07 243.04,-94.75 255.99,-100.54"/>
<polygon fill="black" stroke="black" points="254.33,-103.63 264.89,-104.52 257.19,-97.24 254.33,-103.63"/>
<text xml:space="preserve" text-anchor="middle" x="243.65" y="-99.61" font-family="Times New Roman,serif" font-size="14.00">1</text>
</g>
<!-- q1&#45;&gt;q5 -->
<g id="edge4" class="edge">
<title>q1&#45;&gt;q5</title>
<path fill="none" stroke="black" d="M215.53,-64.53C227.65,-56.69 244.38,-45.86 258.29,-36.86"/>
<polygon fill="black" stroke="black" points="260.05,-39.9 266.54,-31.53 256.25,-34.02 260.05,-39.9"/>
<text xml:space="preserve" text-anchor="middle" x="243.65" y="-50.83" font-family="Times New Roman,serif" font-size="14.00">0</text>
</g>
<!-- q2&#45;&gt;q2 -->
<g id="edge6" class="edge">
<title>q2&#45;&gt;q2</title>
<path fill="none" stroke="black" d="M277.69,-131.97C276.43,-142.06 278.91,-151.26 285.16,-151.26 288.86,-151.26 291.24,-148.02 292.3,-143.27"/>
<polygon fill="black" stroke="black" points="295.8,-143.57 292.57,-133.48 288.8,-143.38 295.8,-143.57"/>
<text xml:space="preserve" text-anchor="middle" x="285.16" y="-154.46" font-family="Times New Roman,serif" font-size="14.00">0</text>
</g>
<!-- q3 -->
<g id="node5" class="node">
<title>q3</title>
<ellipse fill="none" stroke="black" cx="368.17" cy="-153.13" rx="20.13" ry="20.13"/>
<text xml:space="preserve" text-anchor="middle" x="368.17" y="-148.08" font-family="Times New Roman,serif" font-size="14.00">q3</text>
</g>
<!-- q2&#45;&gt;q3 -->
<g id="edge7" class="edge">
<title>q2&#45;&gt;q3</title>
<path fill="none" stroke="black" d="M303.73,-121.81C314.14,-126.95 327.55,-133.57 339.36,-139.4"/>
<polygon fill="black" stroke="black" points="337.75,-142.51 348.27,-143.8 340.85,-136.23 337.75,-142.51"/>
<text xml:space="preserve" text-anchor="middle" x="326.66" y="-137.53" font-family="Times New Roman,serif" font-size="14.00">1</text>
</g>
<!-- q3&#45;&gt;q4 -->
<g id="edge9" class="edge">
<title>q3&#45;&gt;q4</title>
<path fill="none" stroke="black" d="M349.54,-161.99C337.44,-167.56 320.8,-174.23 305.29,-177.13 287.7,-180.42 282.49,-181.03 265.02,-177.13 252.9,-174.42 240.38,-169.23 229.55,-163.85"/>
<polygon fill="black" stroke="black" points="231.19,-160.76 220.71,-159.21 227.93,-166.95 231.19,-160.76"/>
<text xml:space="preserve" text-anchor="middle" x="285.16" y="-183.03" font-family="Times New Roman,serif" font-size="14.00">1</text>
</g>
<!-- q3&#45;&gt;q2 -->
<g id="edge8" class="edge">
<title>q3&#45;&gt;q2</title>
<path fill="none" stroke="black" d="M357.07,-136.17C350.62,-127.06 341.33,-116.68 330.04,-111.63 325.85,-109.76 321.21,-108.85 316.56,-108.55"/>
<polygon fill="black" stroke="black" points="316.63,-105.05 306.74,-108.84 316.84,-112.05 316.63,-105.05"/>
<text xml:space="preserve" text-anchor="middle" x="326.66" y="-114.83" font-family="Times New Roman,serif" font-size="14.00">0</text>
</g>
<!-- q5&#45;&gt;q5 -->
<g id="edge12" class="edge">
<title>q5&#45;&gt;q5</title>
<path fill="none" stroke="black" d="M277.69,-38.97C276.43,-49.06 278.91,-58.26 285.16,-58.26 288.86,-58.26 291.24,-55.02 292.3,-50.27"/>
<polygon fill="black" stroke="black" points="295.8,-50.57 292.57,-40.48 288.8,-50.38 295.8,-50.57"/>
<text xml:space="preserve" text-anchor="middle" x="285.16" y="-61.46" font-family="Times New Roman,serif" font-size="14.00">0,1</text>
</g>
<g id="node7" class="node">
<title></title>
</g>
<!-- &#45;&gt;q0 -->
<g id="edge1" class="edge">
<title>&#45;&gt;q0</title>
<path fill="none" stroke="black" d="M53.99,-36.13C62.04,-36.13 70.98,-36.13 79.33,-36.13"/>
<polygon fill="black" stroke="black" points="79.05,-39.63 89.05,-36.13 79.05,-32.63 79.05,-39.63"/>
</g>
</g>
</svg>
