<?xml version="1.0" encoding="UTF-8" standalone="no"?>
<!DOCTYPE svg PUBLIC "-//W3C//DTD SVG 1.1//EN"
 "http://www.w3.org/Graphics/SVG/1.1/DTD/svg11.dtd">
<!-- Generated by graphviz version 13.1.2 (20250808.2320)
 -->
<!-- Title: DFA_divisible_by_3 Pages: 1 -->
<svg width="313pt" height="91pt"
 viewBox="0.00 0.00 313.00 91.00" xmlns="http://www.w3.org/2000/svg" xmlns:xlink="http://www.w3.org/1999/xlink">
<g id="graph0" class="graph" transform="scale(1 1) rotate(0) translate(4 86.76)">
<title>DFA_divisible_by_3</title>
<polygon fill="white" stroke="none" points="-4,4 -4,-86.76 309.29,-86.76 309.29,4 -4,4"/>
<!-- q0 -->
<g id="node1" class="node">
<title>q0</title>
<ellipse fill="none" stroke="black" cx="115.13" cy="-24.13" rx="20.13" ry="20.13"/>
<ellipse fill="none" stroke="black" cx="115.13" cy="-24.13" rx="24.13" ry="24.13"/>
<text xml:space="preserve" text-anchor="middle" x="115.13" y="-19.08" font-family="Times New Roman,serif" font-size="14.00">q0</text>
</g>
<!-- q0&#45;&gt;q0 -->
<g id="edge2" class="edge">
<title>q0&#45;&gt;q0</title>
<path fill="none" stroke="black" d="M107.26,-47.1C106.51,-57.38 109.14,-66.26 115.13,-66.26 118.69,-66.26 121.06,-63.13 122.24,-58.43"/>
<polygon fill="black" stroke="black" points="125.73,-58.82 122.9,-48.61 118.74,-58.35 125.73,-58.82"/>
<text xml:space="preserve" text-anchor="middle" x="115.13" y="-69.46" font-family="Times New Roman,serif" font-size="14.00">0</text>
</g>
<!-- q1 -->
<g id="node2" class="node">
<title>q1</title>
<ellipse fill="none" stroke="black" cx="202.14" cy="-24.13" rx="20.13" ry="20.13"/>
<text xml:space="preserve" text-anchor="middle" x="202.14" y="-19.08" font-family="Times New Roman,serif" font-size="14.00">q1</text>
</g>
<!-- q0&#45;&gt;q1 -->
<g id="edge3" class="edge">
<title>q0&#45;&gt;q1</title>
<path fill="none" stroke="black" d="M139.36,-24.13C148.9,-24.13 160.09,-24.13 170.3,-24.13"/>
<polygon fill="black" stroke="black" points="170.17,-27.63 180.17,-24.13 170.17,-20.63 170.17,-27.63"/>
<text xml:space="preserve" text-anchor="middle" x="160.64" y="-27.33" font-family="Times New Roman,serif" font-size="14.00">1</text>
</g>
<!-- q1&#45;&gt;q0 -->
<g id="edge5" class="edge">
<title>q1&#45;&gt;q0</title>
<path fill="none" stroke="black" d="M184.89,-12.84C178.66,-9.14 171.29,-5.51 164.01,-3.63 157.77,-2.02 151.3,-2.9 145.2,-5"/>
<polygon fill="black" stroke="black" points="143.75,-1.82 136.14,-9.2 146.69,-8.17 143.75,-1.82"/>
<text xml:space="preserve" text-anchor="middle" x="160.64" y="-6.83" font-family="Times New Roman,serif" font-size="14.00">1</text>
</g>
<!-- q2 -->
<g id="node3" class="node">
<title>q2</title>
<ellipse fill="none" stroke="black" cx="285.16" cy="-24.13" rx="20.13" ry="20.13"/>
<text xml:space="preserve" text-anchor="middle" x="285.16" y="-19.08" font-family="Times New Roman,serif" font-size="14.00">q2</text>
</g>
<!-- q1&#45;&gt;q2 -->
<g id="edge4" class="edge">
<title>q1&#45;&gt;q2</title>
<path fill="none" stroke="black" d="M222.75,-24.13C231.91,-24.13 243.02,-24.13 253.27,-24.13"/>
<polygon fill="black" stroke="black" points="253.21,-27.63 263.21,-24.13 253.21,-20.63 253.21,-27.63"/>
<text xml:space="preserve" text-anchor="middle" x="243.65" y="-27.33" font-family="Times New Roman,serif" font-size="14.00">0</text>
</g>
<!-- q2&#45;&gt;q1 -->
<g id="edge6" class="edge">
<title>q2&#45;&gt;q1</title>
<path fill="none" stroke="black" d="M267.91,-12.84C261.67,-9.14 254.3,-5.51 247.02,-3.63 240.56,-1.96 233.88,-3.31 227.74,-5.95"/>
<polygon fill="black" stroke="black" points="226.43,-2.68 219.38,-10.59 229.82,-8.8 226.43,-2.68"/>
<text xml:space="preserve" text-anchor="middle" x="243.65" y="-6.83" font-family="Times New Roman,serif" font-size="14.00">0</text>
</g>
<!-- q2&#45;&gt;q2 -->
<g id="edge7" class="edge">
<title>q2&#45;&gt;q2</title>
<path fill="none" stroke="black" d="M277.69,-42.97C276.43,-53.06 278.91,-62.26 285.16,-62.26 288.86,-62.26 291.24,-59.02 292.3,-54.27"/>
<polygon fill="black" stroke="black" points="295.8,-54.57 292.57,-44.48 288.8,-54.38 295.8,-54.57"/>
<text xml:space="preserve" text-anchor="middle" x="285.16" y="-65.46" font-family="Times New Roman,serif" font-size="14.00">1</text>
</g>
<g id="node4" class="node">
<title></title>
</g>
<!-- &#45;&gt;q0 -->
<g id="edge1" class="edge">
<title>&#45;&gt;q0</title>
<path fill="none" stroke="black" d="M53.84,-24.13C61.88,-24.13 70.88,-24.13 79.42,-24.13"/>
<polygon fill="black" stroke="black" points="79.14,-27.63 89.14,-24.13 79.14,-20.63 79.14,-27.63"/>
</g>
</g>
</svg>
