<?xml version="1.0" encoding="UTF-8" standalone="no"?>
<!DOCTYPE svg PUBLIC "-//W3C//DTD SVG 1.1//EN"
 "http://www.w3.org/Graphics/SVG/1.1/DTD/svg11.dtd">
<!-- Generated by graphviz version 13.1.2 (20250808.2320)
 -->
<!-- Title: DFA_divisible_by_5 Pages: 1 -->
<svg width="336pt" height="205pt"
 viewBox="0.00 0.00 336.00 205.00" xmlns="http://www.w3.org/2000/svg" xmlns:xlink="http://www.w3.org/1999/xlink">
<g id="graph0" class="graph" transform="scale(1 1) rotate(0) translate(4 200.76)">
<title>DFA_divisible_by_5</title>
<polygon fill="white" stroke="none" points="-4,4 -4,-200.76 331.54,-200.76 331.54,4 -4,4"/>
<!-- q0 -->
<g id="node1" class="node">
<title>q0</title>
<ellipse fill="lightgreen" stroke="black" cx="137.38" cy="-138.13" rx="20.13" ry="20.13"/>
<ellipse fill="none" stroke="black" cx="137.38" cy="-138.13" rx="24.13" ry="24.13"/>
<text xml:space="preserve" text-anchor="middle" x="137.38" y="-133.08" font-family="Times New Roman,serif" font-size="14.00">q0</text>
</g>
<!-- q0&#45;&gt;q0 -->
<g id="edge2" class="edge">
<title>q0&#45;&gt;q0</title>
<path fill="none" stroke="black" d="M128.98,-161.1C128.18,-171.38 130.98,-180.26 137.38,-180.26 141.18,-180.26 143.71,-177.13 144.97,-172.43"/>
<polygon fill="black" stroke="black" points="148.45,-172.83 145.67,-162.61 141.47,-172.34 148.45,-172.83"/>
<text xml:space="preserve" text-anchor="middle" x="137.38" y="-183.46" font-family="Times New Roman,serif" font-size="14.00">0</text>
</g>
<!-- q1 -->
<g id="node2" class="node">
<title>q1</title>
<ellipse fill="lightblue" stroke="black" cx="137.38" cy="-58.13" rx="20.13" ry="20.13"/>
<text xml:space="preserve" text-anchor="middle" x="137.38" y="-53.08" font-family="Times New Roman,serif" font-size="14.00">q1</text>
</g>
<!-- q0&#45;&gt;q1 -->
<g id="edge3" class="edge">
<title>q0&#45;&gt;q1</title>
<path fill="none" stroke="black" d="M137.38,-113.61C137.38,-106.2 137.38,-97.95 137.38,-90.12"/>
<polygon fill="black" stroke="black" points="140.88,-90.25 137.38,-80.25 133.88,-90.25 140.88,-90.25"/>
<text xml:space="preserve" text-anchor="middle" x="126.13" y="-91.08" font-family="Times New Roman,serif" font-size="14.00">1</text>
</g>
<!-- q2 -->
<g id="node3" class="node">
<title>q2</title>
<ellipse fill="lightblue" stroke="black" cx="224.39" cy="-20.13" rx="20.13" ry="20.13"/>
<text xml:space="preserve" text-anchor="middle" x="224.39" y="-15.08" font-family="Times New Roman,serif" font-size="14.00">q2</text>
</g>
<!-- q1&#45;&gt;q2 -->
<g id="edge4" class="edge">
<title>q1&#45;&gt;q2</title>
<path fill="none" stroke="black" d="M150.21,-42.33C157.59,-33.86 167.87,-24.23 179.51,-19.63 183.77,-17.95 188.46,-17.08 193.13,-16.74"/>
<polygon fill="black" stroke="black" points="192.92,-20.24 202.95,-16.81 192.97,-13.24 192.92,-20.24"/>
<text xml:space="preserve" text-anchor="middle" x="182.89" y="-22.83" font-family="Times New Roman,serif" font-size="14.00">0</text>
</g>
<!-- q3 -->
<g id="node4" class="node">
<title>q3</title>
<ellipse fill="lightblue" stroke="black" cx="224.39" cy="-96.13" rx="20.13" ry="20.13"/>
<text xml:space="preserve" text-anchor="middle" x="224.39" y="-91.08" font-family="Times New Roman,serif" font-size="14.00">q3</text>
</g>
<!-- q1&#45;&gt;q3 -->
<g id="edge5" class="edge">
<title>q1&#45;&gt;q3</title>
<path fill="none" stroke="black" d="M157.72,-55.58C166.73,-55.17 177.39,-55.84 186.26,-59.63 192.92,-62.48 199.04,-67.11 204.31,-72.14"/>
<polygon fill="black" stroke="black" points="201.42,-74.17 210.82,-79.06 206.52,-69.38 201.42,-74.17"/>
<text xml:space="preserve" text-anchor="middle" x="182.89" y="-62.83" font-family="Times New Roman,serif" font-size="14.00">1</text>
</g>
<!-- q2&#45;&gt;q0 -->
<g id="edge7" class="edge">
<title>q2&#45;&gt;q0</title>
<path fill="none" stroke="black" d="M215.92,-38.77C207.56,-59.1 194.17,-90.09 186.26,-100.13 180.93,-106.89 174.18,-113.19 167.43,-118.63"/>
<polygon fill="black" stroke="black" points="165.43,-115.75 159.57,-124.57 169.66,-121.33 165.43,-115.75"/>
<text xml:space="preserve" text-anchor="middle" x="182.89" y="-110.79" font-family="Times New Roman,serif" font-size="14.00">1</text>
</g>
<!-- q4 -->
<g id="node5" class="node">
<title>q4</title>
<ellipse fill="lightblue" stroke="black" cx="307.41" cy="-58.13" rx="20.13" ry="20.13"/>
<text xml:space="preserve" text-anchor="middle" x="307.41" y="-53.08" font-family="Times New Roman,serif" font-size="14.00">q4</text>
</g>
<!-- q2&#45;&gt;q4 -->
<g id="edge6" class="edge">
<title>q2&#45;&gt;q4</title>
<path fill="none" stroke="black" d="M242.97,-28.38C253.3,-33.22 266.6,-39.46 278.36,-44.97"/>
<polygon fill="black" stroke="black" points="276.67,-48.05 287.21,-49.13 279.64,-41.71 276.67,-48.05"/>
<text xml:space="preserve" text-anchor="middle" x="265.9" y="-43.47" font-family="Times New Roman,serif" font-size="14.00">0</text>
</g>
<!-- q3&#45;&gt;q1 -->
<g id="edge8" class="edge">
<title>q3&#45;&gt;q1</title>
<path fill="none" stroke="black" d="M205.51,-88.14C194.13,-83.05 179.16,-76.36 166.24,-70.58"/>
<polygon fill="black" stroke="black" points="167.94,-67.51 157.38,-66.62 165.08,-73.9 167.94,-67.51"/>
<text xml:space="preserve" text-anchor="middle" x="182.89" y="-82.61" font-family="Times New Roman,serif" font-size="14.00">0</text>
</g>
<!-- q3&#45;&gt;q2 -->
<g id="edge9" class="edge">
<title>q3&#45;&gt;q2</title>
<path fill="none" stroke="black" d="M224.39,-75.71C224.39,-68.38 224.39,-59.92 224.39,-51.86"/>
<polygon fill="black" stroke="black" points="227.89,-52.01 224.39,-42.01 220.89,-52.01 227.89,-52.01"/>
<text xml:space="preserve" text-anchor="middle" x="213.14" y="-53.08" font-family="Times New Roman,serif" font-size="14.00">1</text>
</g>
<!-- q4&#45;&gt;q3 -->
<g id="edge10" class="edge">
<title>q4&#45;&gt;q3</title>
<path fill="none" stroke="black" d="M288.58,-66.49C278.2,-71.36 264.89,-77.6 253.17,-83.1"/>
<polygon fill="black" stroke="black" points="251.91,-79.83 244.34,-87.24 254.88,-86.16 251.91,-79.83"/>
<text xml:space="preserve" text-anchor="middle" x="265.9" y="-81.47" font-family="Times New Roman,serif" font-size="14.00">0</text>
</g>
<!-- q4&#45;&gt;q4 -->
<g id="edge11" class="edge">
<title>q4&#45;&gt;q4</title>
<path fill="none" stroke="black" d="M299.94,-76.97C298.68,-87.06 301.16,-96.26 307.41,-96.26 311.11,-96.26 313.49,-93.02 314.55,-88.27"/>
<polygon fill="black" stroke="black" points="318.05,-88.57 314.82,-78.48 311.05,-88.38 318.05,-88.57"/>
<text xml:space="preserve" text-anchor="middle" x="307.41" y="-99.46" font-family="Times New Roman,serif" font-size="14.00">1</text>
</g>
<!-- start -->
<g id="node6" class="node">
<title>start</title>
<polygon fill="lightblue" stroke="none" points="54,-156.13 0,-156.13 0,-120.13 54,-120.13 54,-156.13"/>
</g>
<!-- start&#45;&gt;q0 -->
<g id="edge1" class="edge">
<title>start&#45;&gt;q0</title>
<path fill="none" stroke="black" d="M53.96,-138.13C68.23,-138.13 86.13,-138.13 101.6,-138.13"/>
<polygon fill="black" stroke="black" points="101.34,-141.63 111.34,-138.13 101.34,-134.63 101.34,-141.63"/>
<text xml:space="preserve" text-anchor="middle" x="83.62" y="-141.33" font-family="Times New Roman,serif" font-size="14.00">start</text>
</g>
</g>
</svg>
