<?xml version="1.0" encoding="UTF-8" standalone="no"?>
<!DOCTYPE svg PUBLIC "-//W3C//DTD SVG 1.1//EN"
 "http://www.w3.org/Graphics/SVG/1.1/DTD/svg11.dtd">
<!-- Generated by graphviz version 13.1.2 (20250808.2320)
 -->
<!-- Title: DFA_at_least_1a_exactly_2b Pages: 1 -->
<svg width="329pt" height="478pt"
 viewBox="0.00 0.00 329.00 478.00" xmlns="http://www.w3.org/2000/svg" xmlns:xlink="http://www.w3.org/1999/xlink">
<g id="graph0" class="graph" transform="scale(1 1) rotate(0) translate(4 474.45)">
<title>DFA_at_least_1a_exactly_2b</title>
<polygon fill="white" stroke="none" points="-4,4 -4,-474.45 324.91,-474.45 324.91,4 -4,4"/>
<!-- q5 -->
<g id="node1" class="node">
<title>q5</title>
<ellipse fill="lightgreen" stroke="black" cx="197.39" cy="-71.32" rx="20.13" ry="20.13"/>
<ellipse fill="none" stroke="black" cx="197.39" cy="-71.32" rx="24.13" ry="24.13"/>
<text xml:space="preserve" text-anchor="middle" x="197.39" y="-66.27" font-family="Times New Roman,serif" font-size="14.00">q5</text>
</g>
<!-- q5&#45;&gt;q5 -->
<g id="edge12" class="edge">
<title>q5&#45;&gt;q5</title>
<path fill="none" stroke="black" d="M189.06,-94.29C188.27,-104.56 191.05,-113.45 197.39,-113.45 201.16,-113.45 203.67,-110.32 204.92,-105.62"/>
<polygon fill="black" stroke="black" points="208.4,-106.02 205.62,-95.8 201.42,-105.53 208.4,-106.02"/>
<text xml:space="preserve" text-anchor="middle" x="197.39" y="-116.65" font-family="Times New Roman,serif" font-size="14.00">a</text>
</g>
<!-- dead -->
<g id="node10" class="node">
<title>dead</title>
<ellipse fill="red" stroke="black" cx="292.59" cy="-28.32" rx="28.32" ry="28.32"/>
<text xml:space="preserve" text-anchor="middle" x="292.59" y="-23.27" font-family="Times New Roman,serif" font-size="14.00">dead</text>
</g>
<!-- q5&#45;&gt;dead -->
<g id="edge13" class="edge">
<title>q5&#45;&gt;dead</title>
<path fill="none" stroke="black" d="M219.54,-61.56C230.45,-56.53 244.05,-50.26 256.48,-44.52"/>
<polygon fill="black" stroke="black" points="257.57,-47.87 265.19,-40.5 254.64,-41.52 257.57,-47.87"/>
<text xml:space="preserve" text-anchor="middle" x="242.9" y="-54.31" font-family="Times New Roman,serif" font-size="14.00">b</text>
</g>
<!-- q0 -->
<g id="node2" class="node">
<title>q0</title>
<ellipse fill="lightblue" stroke="black" cx="111.13" cy="-278.32" rx="20.13" ry="20.13"/>
<text xml:space="preserve" text-anchor="middle" x="111.13" y="-273.27" font-family="Times New Roman,serif" font-size="14.00">q0</text>
</g>
<!-- q1 -->
<g id="node3" class="node">
<title>q1</title>
<ellipse fill="lightblue" stroke="black" cx="111.13" cy="-185.32" rx="20.13" ry="20.13"/>
<text xml:space="preserve" text-anchor="middle" x="111.13" y="-180.27" font-family="Times New Roman,serif" font-size="14.00">q1</text>
</g>
<!-- q0&#45;&gt;q1 -->
<g id="edge3" class="edge">
<title>q0&#45;&gt;q1</title>
<path fill="none" stroke="black" d="M111.13,-257.86C111.13,-245.82 111.13,-230.35 111.13,-216.79"/>
<polygon fill="black" stroke="black" points="114.63,-217.01 111.13,-207.01 107.63,-217.01 114.63,-217.01"/>
<text xml:space="preserve" text-anchor="middle" x="99.88" y="-226.77" font-family="Times New Roman,serif" font-size="14.00">b</text>
</g>
<!-- q3 -->
<g id="node5" class="node">
<title>q3</title>
<ellipse fill="lightblue" stroke="black" cx="197.39" cy="-295.32" rx="20.13" ry="20.13"/>
<text xml:space="preserve" text-anchor="middle" x="197.39" y="-290.27" font-family="Times New Roman,serif" font-size="14.00">q3</text>
</g>
<!-- q0&#45;&gt;q3 -->
<g id="edge2" class="edge">
<title>q0&#45;&gt;q3</title>
<path fill="none" stroke="black" d="M131.25,-282.18C141.59,-284.26 154.61,-286.89 166.27,-289.24"/>
<polygon fill="black" stroke="black" points="165.37,-292.63 175.86,-291.18 166.75,-285.77 165.37,-292.63"/>
<text xml:space="preserve" text-anchor="middle" x="152.26" y="-290.02" font-family="Times New Roman,serif" font-size="14.00">a</text>
</g>
<!-- q2 -->
<g id="node4" class="node">
<title>q2</title>
<ellipse fill="lightblue" stroke="black" cx="111.13" cy="-71.32" rx="20.13" ry="20.13"/>
<text xml:space="preserve" text-anchor="middle" x="111.13" y="-66.27" font-family="Times New Roman,serif" font-size="14.00">q2</text>
</g>
<!-- q1&#45;&gt;q2 -->
<g id="edge5" class="edge">
<title>q1&#45;&gt;q2</title>
<path fill="none" stroke="black" d="M111.13,-164.73C111.13,-147.59 111.13,-122.9 111.13,-103.2"/>
<polygon fill="black" stroke="black" points="114.63,-103.21 111.13,-93.21 107.63,-103.21 114.63,-103.21"/>
<text xml:space="preserve" text-anchor="middle" x="99.88" y="-123.27" font-family="Times New Roman,serif" font-size="14.00">b</text>
</g>
<!-- q4 -->
<g id="node6" class="node">
<title>q4</title>
<ellipse fill="lightblue" stroke="black" cx="197.39" cy="-185.32" rx="20.13" ry="20.13"/>
<text xml:space="preserve" text-anchor="middle" x="197.39" y="-180.27" font-family="Times New Roman,serif" font-size="14.00">q4</text>
</g>
<!-- q1&#45;&gt;q4 -->
<g id="edge4" class="edge">
<title>q1&#45;&gt;q4</title>
<path fill="none" stroke="black" d="M131.67,-185.32C141.78,-185.32 154.34,-185.32 165.7,-185.32"/>
<polygon fill="black" stroke="black" points="165.44,-188.82 175.44,-185.32 165.44,-181.82 165.44,-188.82"/>
<text xml:space="preserve" text-anchor="middle" x="152.26" y="-188.52" font-family="Times New Roman,serif" font-size="14.00">a</text>
</g>
<!-- q2&#45;&gt;q5 -->
<g id="edge6" class="edge">
<title>q2&#45;&gt;q5</title>
<path fill="none" stroke="black" d="M131.67,-71.32C140.65,-71.32 151.56,-71.32 161.85,-71.32"/>
<polygon fill="black" stroke="black" points="161.55,-74.82 171.55,-71.32 161.55,-67.82 161.55,-74.82"/>
<text xml:space="preserve" text-anchor="middle" x="152.26" y="-74.52" font-family="Times New Roman,serif" font-size="14.00">a</text>
</g>
<!-- q2&#45;&gt;dead -->
<g id="edge7" class="edge">
<title>q2&#45;&gt;dead</title>
<path fill="none" stroke="black" d="M124.96,-56.4C136.28,-44.48 153.95,-28.66 173.26,-21.82 199.1,-12.67 230.08,-14.8 253.87,-18.95"/>
<polygon fill="black" stroke="black" points="252.94,-22.34 263.42,-20.82 254.28,-15.47 252.94,-22.34"/>
<text xml:space="preserve" text-anchor="middle" x="197.39" y="-25.02" font-family="Times New Roman,serif" font-size="14.00">b</text>
</g>
<!-- q3&#45;&gt;q3 -->
<g id="edge8" class="edge">
<title>q3&#45;&gt;q3</title>
<path fill="none" stroke="black" d="M189.28,-314.15C187.9,-324.25 190.61,-333.45 197.39,-333.45 201.42,-333.45 204.01,-330.21 205.16,-325.46"/>
<polygon fill="black" stroke="black" points="208.66,-325.77 205.46,-315.67 201.66,-325.56 208.66,-325.77"/>
<text xml:space="preserve" text-anchor="middle" x="197.39" y="-336.65" font-family="Times New Roman,serif" font-size="14.00">a</text>
</g>
<!-- q3&#45;&gt;q4 -->
<g id="edge9" class="edge">
<title>q3&#45;&gt;q4</title>
<path fill="none" stroke="black" d="M197.39,-275C197.39,-258.82 197.39,-235.88 197.39,-217.26"/>
<polygon fill="black" stroke="black" points="200.89,-217.27 197.39,-207.27 193.89,-217.27 200.89,-217.27"/>
<text xml:space="preserve" text-anchor="middle" x="186.14" y="-235.27" font-family="Times New Roman,serif" font-size="14.00">b</text>
</g>
<!-- q4&#45;&gt;q5 -->
<g id="edge11" class="edge">
<title>q4&#45;&gt;q5</title>
<path fill="none" stroke="black" d="M197.39,-164.72C197.39,-148.67 197.39,-126.01 197.39,-107.03"/>
<polygon fill="black" stroke="black" points="200.89,-107.29 197.39,-97.29 193.89,-107.29 200.89,-107.29"/>
<text xml:space="preserve" text-anchor="middle" x="186.14" y="-125.27" font-family="Times New Roman,serif" font-size="14.00">b</text>
</g>
<!-- q4&#45;&gt;q4 -->
<g id="edge10" class="edge">
<title>q4&#45;&gt;q4</title>
<path fill="none" stroke="black" d="M189.28,-204.15C187.9,-214.25 190.61,-223.45 197.39,-223.45 201.42,-223.45 204.01,-220.21 205.16,-215.46"/>
<polygon fill="black" stroke="black" points="208.66,-215.77 205.46,-205.67 201.66,-215.56 208.66,-215.77"/>
<text xml:space="preserve" text-anchor="middle" x="197.39" y="-226.65" font-family="Times New Roman,serif" font-size="14.00">a</text>
</g>
<!-- q6 -->
<g id="node7" class="node">
<title>q6</title>
<ellipse fill="lightblue" stroke="black" cx="27" cy="-334.32" rx="20.13" ry="20.13"/>
<text xml:space="preserve" text-anchor="middle" x="27" y="-329.27" font-family="Times New Roman,serif" font-size="14.00">q6</text>
</g>
<!-- q7 -->
<g id="node8" class="node">
<title>q7</title>
<ellipse fill="lightblue" stroke="black" cx="27" cy="-392.32" rx="20.13" ry="20.13"/>
<text xml:space="preserve" text-anchor="middle" x="27" y="-387.27" font-family="Times New Roman,serif" font-size="14.00">q7</text>
</g>
<!-- q8 -->
<g id="node9" class="node">
<title>q8</title>
<ellipse fill="lightblue" stroke="black" cx="27" cy="-450.32" rx="20.13" ry="20.13"/>
<text xml:space="preserve" text-anchor="middle" x="27" y="-445.27" font-family="Times New Roman,serif" font-size="14.00">q8</text>
</g>
<!-- dead&#45;&gt;dead -->
<g id="edge14" class="edge">
<title>dead&#45;&gt;dead</title>
<path fill="none" stroke="black" d="M283.31,-55.44C282.9,-65.92 285.99,-74.64 292.59,-74.64 296.51,-74.64 299.2,-71.57 300.64,-66.88"/>
<polygon fill="black" stroke="black" points="304.12,-67.26 301.71,-56.94 297.16,-66.51 304.12,-67.26"/>
<text xml:space="preserve" text-anchor="middle" x="292.59" y="-77.84" font-family="Times New Roman,serif" font-size="14.00">a,b</text>
</g>
<!-- start -->
<g id="node11" class="node">
<title>start</title>
<polygon fill="red" stroke="none" points="54,-296.32 0,-296.32 0,-260.32 54,-260.32 54,-296.32"/>
</g>
<!-- start&#45;&gt;q0 -->
<g id="edge1" class="edge">
<title>start&#45;&gt;q0</title>
<path fill="none" stroke="black" d="M53.99,-278.32C62.04,-278.32 70.98,-278.32 79.33,-278.32"/>
<polygon fill="black" stroke="black" points="79.05,-281.82 89.05,-278.32 79.05,-274.82 79.05,-281.82"/>
</g>
</g>
</svg>
