<?xml version="1.0" encoding="UTF-8" standalone="no"?>
<!DOCTYPE svg PUBLIC "-//W3C//DTD SVG 1.1//EN"
 "http://www.w3.org/Graphics/SVG/1.1/DTD/svg11.dtd">
<!-- Generated by graphviz version 13.1.2 (20250808.2320)
 -->
<!-- Title: DFA_length_mod_3 Pages: 1 -->
<svg width="163pt" height="208pt"
 viewBox="0.00 0.00 163.00 208.00" xmlns="http://www.w3.org/2000/svg" xmlns:xlink="http://www.w3.org/1999/xlink">
<g id="graph0" class="graph" transform="scale(1 1) rotate(0) translate(4 204.26)">
<title>DFA_length_mod_3</title>
<polygon fill="white" stroke="none" points="-4,4 -4,-204.26 158.76,-204.26 158.76,4 -4,4"/>
<!-- q0 -->
<g id="node1" class="node">
<title>q0</title>
<ellipse fill="lightgreen" stroke="black" cx="130.63" cy="-100.13" rx="20.13" ry="20.13"/>
<ellipse fill="none" stroke="black" cx="130.63" cy="-100.13" rx="24.13" ry="24.13"/>
<text xml:space="preserve" text-anchor="middle" x="130.63" y="-95.08" font-family="Times New Roman,serif" font-size="14.00">q0</text>
</g>
<!-- q1 -->
<g id="node2" class="node">
<title>q1</title>
<ellipse fill="lightblue" stroke="black" cx="130.63" cy="-20.13" rx="20.13" ry="20.13"/>
<text xml:space="preserve" text-anchor="middle" x="130.63" y="-15.08" font-family="Times New Roman,serif" font-size="14.00">q1</text>
</g>
<!-- q0&#45;&gt;q1 -->
<g id="edge2" class="edge">
<title>q0&#45;&gt;q1</title>
<path fill="none" stroke="black" d="M130.63,-75.61C130.63,-68.2 130.63,-59.95 130.63,-52.12"/>
<polygon fill="black" stroke="black" points="134.13,-52.25 130.63,-42.25 127.13,-52.25 134.13,-52.25"/>
<text xml:space="preserve" text-anchor="middle" x="119.38" y="-53.08" font-family="Times New Roman,serif" font-size="14.00">a,b</text>
</g>
<!-- q2 -->
<g id="node3" class="node">
<title>q2</title>
<ellipse fill="lightblue" stroke="black" cx="130.63" cy="-180.13" rx="20.13" ry="20.13"/>
<text xml:space="preserve" text-anchor="middle" x="130.63" y="-175.08" font-family="Times New Roman,serif" font-size="14.00">q2</text>
</g>
<!-- q1&#45;&gt;q2 -->
<g id="edge3" class="edge">
<title>q1&#45;&gt;q2</title>
<path fill="none" stroke="black" d="M112.67,-30.19C101.09,-37.78 87.01,-49.36 80.4,-63.88 77.36,-70.56 78.73,-73.24 80.4,-80.38 86.61,-106.95 101.17,-134.45 113.02,-153.83"/>
<polygon fill="black" stroke="black" points="109.98,-155.57 118.28,-162.15 115.9,-151.83 109.98,-155.57"/>
<text xml:space="preserve" text-anchor="middle" x="80.25" y="-67.08" font-family="Times New Roman,serif" font-size="14.00">a,b</text>
</g>
<!-- q2&#45;&gt;q0 -->
<g id="edge4" class="edge">
<title>q2&#45;&gt;q0</title>
<path fill="none" stroke="black" d="M130.63,-159.61C130.63,-152.43 130.63,-144.14 130.63,-136.07"/>
<polygon fill="black" stroke="black" points="134.13,-136.08 130.63,-126.08 127.13,-136.08 134.13,-136.08"/>
<text xml:space="preserve" text-anchor="middle" x="119.38" y="-137.08" font-family="Times New Roman,serif" font-size="14.00">a,b</text>
</g>
<!-- start -->
<g id="node4" class="node">
<title>start</title>
<polygon fill="lightblue" stroke="none" points="54,-118.13 0,-118.13 0,-82.13 54,-82.13 54,-118.13"/>
</g>
<!-- start&#45;&gt;q0 -->
<g id="edge1" class="edge">
<title>start&#45;&gt;q0</title>
<path fill="none" stroke="black" d="M53.91,-100.13C66.37,-100.13 81.49,-100.13 94.93,-100.13"/>
<polygon fill="black" stroke="black" points="94.69,-103.63 104.69,-100.13 94.69,-96.63 94.69,-103.63"/>
</g>
</g>
</svg>
