<?xml version="1.0" encoding="UTF-8" standalone="no"?>
<!DOCTYPE svg PUBLIC "-//W3C//DTD SVG 1.1//EN"
 "http://www.w3.org/Graphics/SVG/1.1/DTD/svg11.dtd">
<!-- Generated by graphviz version 13.1.2 (20250808.2320)
 -->
<!-- Title: DFA_ends_ab_or_ba Pages: 1 -->
<svg width="253pt" height="256pt"
 viewBox="0.00 0.00 253.00 256.00" xmlns="http://www.w3.org/2000/svg" xmlns:xlink="http://www.w3.org/1999/xlink">
<g id="graph0" class="graph" transform="scale(1 1) rotate(0) translate(4 252.26)">
<title>DFA_ends_ab_or_ba</title>
<polygon fill="white" stroke="none" points="-4,4 -4,-252.26 248.52,-252.26 248.52,4 -4,4"/>
<!-- q3 -->
<g id="node1" class="node">
<title>q3</title>
<ellipse fill="lightgreen" stroke="black" cx="137.38" cy="-24.13" rx="20.13" ry="20.13"/>
<ellipse fill="none" stroke="black" cx="137.38" cy="-24.13" rx="24.13" ry="24.13"/>
<text xml:space="preserve" text-anchor="middle" x="137.38" y="-19.08" font-family="Times New Roman,serif" font-size="14.00">q3</text>
</g>
<!-- q1 -->
<g id="node4" class="node">
<title>q1</title>
<ellipse fill="lightblue" stroke="black" cx="224.39" cy="-51.13" rx="20.13" ry="20.13"/>
<text xml:space="preserve" text-anchor="middle" x="224.39" y="-46.08" font-family="Times New Roman,serif" font-size="14.00">q1</text>
</g>
<!-- q3&#45;&gt;q1 -->
<g id="edge8" class="edge">
<title>q3&#45;&gt;q1</title>
<path fill="none" stroke="black" d="M156.31,-8.9C165.38,-3.08 176.51,1.12 186.26,-3.63 195.23,-8 202.66,-15.7 208.46,-23.64"/>
<polygon fill="black" stroke="black" points="205.5,-25.51 213.9,-31.97 211.36,-21.68 205.5,-25.51"/>
<text xml:space="preserve" text-anchor="middle" x="182.89" y="-6.83" font-family="Times New Roman,serif" font-size="14.00">a</text>
</g>
<!-- q2 -->
<g id="node5" class="node">
<title>q2</title>
<ellipse fill="lightblue" stroke="black" cx="224.39" cy="-157.13" rx="20.13" ry="20.13"/>
<text xml:space="preserve" text-anchor="middle" x="224.39" y="-152.08" font-family="Times New Roman,serif" font-size="14.00">q2</text>
</g>
<!-- q3&#45;&gt;q2 -->
<g id="edge9" class="edge">
<title>q3&#45;&gt;q2</title>
<path fill="none" stroke="black" d="M151.29,-44.33C166.14,-67.55 190.54,-105.73 206.79,-131.15"/>
<polygon fill="black" stroke="black" points="203.63,-132.72 211.97,-139.26 209.53,-128.95 203.63,-132.72"/>
<text xml:space="preserve" text-anchor="middle" x="182.89" y="-101.79" font-family="Times New Roman,serif" font-size="14.00">b</text>
</g>
<!-- q4 -->
<g id="node2" class="node">
<title>q4</title>
<ellipse fill="lightgreen" stroke="black" cx="137.38" cy="-224.13" rx="20.13" ry="20.13"/>
<ellipse fill="none" stroke="black" cx="137.38" cy="-224.13" rx="24.13" ry="24.13"/>
<text xml:space="preserve" text-anchor="middle" x="137.38" y="-219.08" font-family="Times New Roman,serif" font-size="14.00">q4</text>
</g>
<!-- q4&#45;&gt;q1 -->
<g id="edge10" class="edge">
<title>q4&#45;&gt;q1</title>
<path fill="none" stroke="black" d="M154.02,-206.08C164.26,-193.56 177.34,-176.14 186.26,-159.13 199.3,-134.27 209.27,-103.88 215.58,-81.68"/>
<polygon fill="black" stroke="black" points="218.96,-82.61 218.23,-72.04 212.21,-80.76 218.96,-82.61"/>
<text xml:space="preserve" text-anchor="middle" x="182.89" y="-173.77" font-family="Times New Roman,serif" font-size="14.00">a</text>
</g>
<!-- q4&#45;&gt;q2 -->
<g id="edge11" class="edge">
<title>q4&#45;&gt;q2</title>
<path fill="none" stroke="black" d="M160.64,-230.7C169.19,-231.95 178.7,-231.68 186.26,-227.13 200.63,-218.49 209.74,-202.2 215.33,-187.51"/>
<polygon fill="black" stroke="black" points="218.6,-188.77 218.47,-178.17 211.97,-186.54 218.6,-188.77"/>
<text xml:space="preserve" text-anchor="middle" x="182.89" y="-232.92" font-family="Times New Roman,serif" font-size="14.00">b</text>
</g>
<!-- q0 -->
<g id="node3" class="node">
<title>q0</title>
<ellipse fill="lightblue" stroke="black" cx="137.38" cy="-115.13" rx="20.13" ry="20.13"/>
<text xml:space="preserve" text-anchor="middle" x="137.38" y="-110.08" font-family="Times New Roman,serif" font-size="14.00">q0</text>
</g>
<!-- q0&#45;&gt;q1 -->
<g id="edge2" class="edge">
<title>q0&#45;&gt;q1</title>
<path fill="none" stroke="black" d="M148.74,-98.34C156.13,-87.63 166.96,-74.19 179.51,-65.63 183.8,-62.7 188.73,-60.33 193.7,-58.42"/>
<polygon fill="black" stroke="black" points="194.55,-61.82 202.97,-55.4 192.38,-55.17 194.55,-61.82"/>
<text xml:space="preserve" text-anchor="middle" x="182.89" y="-68.83" font-family="Times New Roman,serif" font-size="14.00">a</text>
</g>
<!-- q0&#45;&gt;q2 -->
<g id="edge3" class="edge">
<title>q0&#45;&gt;q2</title>
<path fill="none" stroke="black" d="M156,-123.83C167.39,-129.46 182.48,-136.92 195.49,-143.35"/>
<polygon fill="black" stroke="black" points="193.93,-146.48 204.44,-147.77 197.03,-140.2 193.93,-146.48"/>
<text xml:space="preserve" text-anchor="middle" x="182.89" y="-141.85" font-family="Times New Roman,serif" font-size="14.00">b</text>
</g>
<!-- q1&#45;&gt;q3 -->
<g id="edge5" class="edge">
<title>q1&#45;&gt;q3</title>
<path fill="none" stroke="black" d="M208.56,-38.05C202.15,-33.21 194.29,-28.26 186.26,-25.63 182.03,-24.24 177.47,-23.37 172.9,-22.86"/>
<polygon fill="black" stroke="black" points="173.42,-19.38 163.24,-22.32 173.04,-26.37 173.42,-19.38"/>
<text xml:space="preserve" text-anchor="middle" x="182.89" y="-28.83" font-family="Times New Roman,serif" font-size="14.00">b</text>
</g>
<!-- q1&#45;&gt;q1 -->
<g id="edge4" class="edge">
<title>q1&#45;&gt;q1</title>
<path fill="none" stroke="black" d="M216.93,-69.97C215.66,-80.06 218.15,-89.26 224.39,-89.26 228.1,-89.26 230.48,-86.02 231.54,-81.27"/>
<polygon fill="black" stroke="black" points="235.03,-81.57 231.81,-71.48 228.04,-81.38 235.03,-81.57"/>
<text xml:space="preserve" text-anchor="middle" x="224.39" y="-92.46" font-family="Times New Roman,serif" font-size="14.00">a</text>
</g>
<!-- q2&#45;&gt;q4 -->
<g id="edge6" class="edge">
<title>q2&#45;&gt;q4</title>
<path fill="none" stroke="black" d="M212.53,-173.7C205.82,-182.98 196.54,-194.23 186.26,-202.13 181.58,-205.73 176.21,-208.92 170.8,-211.67"/>
<polygon fill="black" stroke="black" points="169.51,-208.41 161.89,-215.78 172.44,-214.77 169.51,-208.41"/>
<text xml:space="preserve" text-anchor="middle" x="182.89" y="-209.42" font-family="Times New Roman,serif" font-size="14.00">a</text>
</g>
<!-- q2&#45;&gt;q2 -->
<g id="edge7" class="edge">
<title>q2&#45;&gt;q2</title>
<path fill="none" stroke="black" d="M216.93,-175.97C215.66,-186.06 218.15,-195.26 224.39,-195.26 228.1,-195.26 230.48,-192.02 231.54,-187.27"/>
<polygon fill="black" stroke="black" points="235.03,-187.57 231.81,-177.48 228.04,-187.38 235.03,-187.57"/>
<text xml:space="preserve" text-anchor="middle" x="224.39" y="-198.46" font-family="Times New Roman,serif" font-size="14.00">b</text>
</g>
<!-- start -->
<g id="node6" class="node">
<title>start</title>
<polygon fill="lightblue" stroke="none" points="54,-133.13 0,-133.13 0,-97.13 54,-97.13 54,-133.13"/>
</g>
<!-- start&#45;&gt;q0 -->
<g id="edge1" class="edge">
<title>start&#45;&gt;q0</title>
<path fill="none" stroke="black" d="M53.96,-115.13C69.58,-115.13 89.55,-115.13 105.91,-115.13"/>
<polygon fill="black" stroke="black" points="105.57,-118.63 115.57,-115.13 105.57,-111.63 105.57,-118.63"/>
<text xml:space="preserve" text-anchor="middle" x="83.62" y="-118.33" font-family="Times New Roman,serif" font-size="14.00">start</text>
</g>
</g>
</svg>
