<?xml version="1.0" encoding="UTF-8" standalone="no"?>
<!DOCTYPE svg PUBLIC "-//W3C//DTD SVG 1.1//EN"
 "http://www.w3.org/Graphics/SVG/1.1/DTD/svg11.dtd">
<!-- Generated by graphviz version 13.1.2 (20250808.2320)
 -->
<!-- Title: DFA Pages: 1 -->
<svg width="271pt" height="184pt"
 viewBox="0.00 0.00 271.00 184.00" xmlns="http://www.w3.org/2000/svg" xmlns:xlink="http://www.w3.org/1999/xlink">
<g id="graph0" class="graph" transform="scale(1 1) rotate(0) translate(4 179.76)">
<title>DFA</title>
<polygon fill="white" stroke="none" points="-4,4 -4,-179.76 266.89,-179.76 266.89,4 -4,4"/>
<!-- q1 -->
<g id="node1" class="node">
<title>q1</title>
<ellipse fill="none" stroke="black" cx="147.74" cy="-117.13" rx="20.13" ry="20.13"/>
<ellipse fill="none" stroke="black" cx="147.74" cy="-117.13" rx="24.13" ry="24.13"/>
<text xml:space="preserve" text-anchor="middle" x="147.74" y="-112.08" font-family="Times New Roman,serif" font-size="14.00">q1</text>
</g>
<!-- q1&#45;&gt;q1 -->
<g id="edge5" class="edge">
<title>q1&#45;&gt;q1</title>
<path fill="none" stroke="black" d="M139.34,-140.1C138.54,-150.38 141.34,-159.26 147.74,-159.26 151.54,-159.26 154.07,-156.13 155.34,-151.43"/>
<polygon fill="black" stroke="black" points="158.82,-151.83 156.03,-141.61 151.83,-151.34 158.82,-151.83"/>
<text xml:space="preserve" text-anchor="middle" x="147.74" y="-162.46" font-family="Times New Roman,serif" font-size="14.00">b</text>
</g>
<!-- q2 -->
<g id="node2" class="node">
<title>q2</title>
<ellipse fill="none" stroke="black" cx="238.76" cy="-117.13" rx="20.13" ry="20.13"/>
<ellipse fill="none" stroke="black" cx="238.76" cy="-117.13" rx="24.13" ry="24.13"/>
<text xml:space="preserve" text-anchor="middle" x="238.76" y="-112.08" font-family="Times New Roman,serif" font-size="14.00">q2</text>
</g>
<!-- q1&#45;&gt;q2 -->
<g id="edge4" class="edge">
<title>q1&#45;&gt;q2</title>
<path fill="none" stroke="black" d="M172.13,-117.13C181.56,-117.13 192.64,-117.13 202.98,-117.13"/>
<polygon fill="black" stroke="black" points="202.7,-120.63 212.7,-117.13 202.7,-113.63 202.7,-120.63"/>
<text xml:space="preserve" text-anchor="middle" x="193.25" y="-120.33" font-family="Times New Roman,serif" font-size="14.00">a</text>
</g>
<!-- q2&#45;&gt;q1 -->
<g id="edge7" class="edge">
<title>q2&#45;&gt;q1</title>
<path fill="none" stroke="black" d="M219.16,-103.03C210.5,-98.08 199.91,-94.27 189.87,-96.63 186.3,-97.47 182.69,-98.67 179.16,-100.08"/>
<polygon fill="black" stroke="black" points="177.97,-96.77 170.34,-104.11 180.89,-103.13 177.97,-96.77"/>
<text xml:space="preserve" text-anchor="middle" x="193.25" y="-99.83" font-family="Times New Roman,serif" font-size="14.00">b</text>
</g>
<!-- q2&#45;&gt;q2 -->
<g id="edge6" class="edge">
<title>q2&#45;&gt;q2</title>
<path fill="none" stroke="black" d="M230.36,-140.1C229.56,-150.38 232.36,-159.26 238.76,-159.26 242.56,-159.26 245.09,-156.13 246.35,-151.43"/>
<polygon fill="black" stroke="black" points="249.83,-151.83 247.05,-141.61 242.85,-151.34 249.83,-151.83"/>
<text xml:space="preserve" text-anchor="middle" x="238.76" y="-162.46" font-family="Times New Roman,serif" font-size="14.00">a</text>
</g>
<!-- q0 -->
<g id="node3" class="node">
<title>q0</title>
<ellipse fill="none" stroke="black" cx="60.73" cy="-68.13" rx="20.13" ry="20.13"/>
<text xml:space="preserve" text-anchor="middle" x="60.73" y="-63.08" font-family="Times New Roman,serif" font-size="14.00">q0</text>
</g>
<!-- q0&#45;&gt;q1 -->
<g id="edge2" class="edge">
<title>q0&#45;&gt;q1</title>
<path fill="none" stroke="black" d="M78.53,-77.81C89.37,-84.06 103.79,-92.37 116.58,-99.74"/>
<polygon fill="black" stroke="black" points="114.66,-102.68 125.07,-104.64 118.16,-96.61 114.66,-102.68"/>
<text xml:space="preserve" text-anchor="middle" x="102.24" y="-95.83" font-family="Times New Roman,serif" font-size="14.00">a</text>
</g>
<!-- qd -->
<g id="node4" class="node">
<title>qd</title>
<ellipse fill="none" stroke="black" cx="147.74" cy="-20.13" rx="20.13" ry="20.13"/>
<text xml:space="preserve" text-anchor="middle" x="147.74" y="-15.08" font-family="Times New Roman,serif" font-size="14.00">qd</text>
</g>
<!-- q0&#45;&gt;qd -->
<g id="edge3" class="edge">
<title>q0&#45;&gt;qd</title>
<path fill="none" stroke="black" d="M78.53,-58.65C90.33,-51.99 106.36,-42.93 119.92,-35.28"/>
<polygon fill="black" stroke="black" points="121.39,-38.47 128.37,-30.5 117.94,-32.37 121.39,-38.47"/>
<text xml:space="preserve" text-anchor="middle" x="102.24" y="-50.2" font-family="Times New Roman,serif" font-size="14.00">b</text>
</g>
<!-- qd&#45;&gt;qd -->
<g id="edge8" class="edge">
<title>qd&#45;&gt;qd</title>
<path fill="none" stroke="black" d="M139.56,-38.97C138.17,-49.06 140.9,-58.26 147.74,-58.26 151.81,-58.26 154.42,-55.02 155.58,-50.27"/>
<polygon fill="black" stroke="black" points="159.07,-50.58 155.88,-40.48 152.07,-50.37 159.07,-50.58"/>
<text xml:space="preserve" text-anchor="middle" x="147.74" y="-61.46" font-family="Times New Roman,serif" font-size="14.00">a,b</text>
</g>
<!-- start -->
<g id="node5" class="node">
<title>start</title>
<ellipse fill="black" stroke="black" cx="1.8" cy="-68.13" rx="1.8" ry="1.8"/>
</g>
<!-- start&#45;&gt;q0 -->
<g id="edge1" class="edge">
<title>start&#45;&gt;q0</title>
<path fill="none" stroke="black" d="M3.79,-68.13C7.01,-68.13 17.65,-68.13 28.79,-68.13"/>
<polygon fill="black" stroke="black" points="28.79,-71.63 38.79,-68.13 28.79,-64.63 28.79,-71.63"/>
</g>
</g>
</svg>
