<?xml version="1.0" encoding="UTF-8" standalone="no"?>
<!DOCTYPE svg PUBLIC "-//W3C//DTD SVG 1.1//EN"
 "http://www.w3.org/Graphics/SVG/1.1/DTD/svg11.dtd">
<!-- Generated by graphviz version 13.1.2 (20250808.2320)
 -->
<!-- Title: DFA_start_00_end_11 Pages: 1 -->
<svg width="322pt" height="255pt"
 viewBox="0.00 0.00 322.00 255.00" xmlns="http://www.w3.org/2000/svg" xmlns:xlink="http://www.w3.org/1999/xlink">
<g id="graph0" class="graph" transform="scale(1 1) rotate(0) translate(4 250.76)">
<title>DFA_start_00_end_11</title>
<polygon fill="white" stroke="none" points="-4,4 -4,-250.76 317.96,-250.76 317.96,4 -4,4"/>
<!-- q4 -->
<g id="node1" class="node">
<title>q4</title>
<ellipse fill="lightgreen" stroke="black" cx="202.33" cy="-188.13" rx="20.13" ry="20.13"/>
<ellipse fill="none" stroke="black" cx="202.33" cy="-188.13" rx="24.13" ry="24.13"/>
<text xml:space="preserve" text-anchor="middle" x="202.33" y="-183.08" font-family="Times New Roman,serif" font-size="14.00">q4</text>
</g>
<!-- q4&#45;&gt;q4 -->
<g id="edge11" class="edge">
<title>q4&#45;&gt;q4</title>
<path fill="none" stroke="black" d="M193.2,-210.67C192.2,-221.13 195.25,-230.26 202.33,-230.26 206.65,-230.26 209.47,-226.87 210.78,-221.85"/>
<polygon fill="black" stroke="black" points="214.26,-222.38 211.37,-212.18 207.27,-221.95 214.26,-222.38"/>
<text xml:space="preserve" text-anchor="middle" x="202.33" y="-233.46" font-family="Times New Roman,serif" font-size="14.00">1</text>
</g>
<!-- q2 -->
<g id="node4" class="node">
<title>q2</title>
<ellipse fill="lightblue" stroke="black" cx="293.53" cy="-78.13" rx="20.13" ry="20.13"/>
<text xml:space="preserve" text-anchor="middle" x="293.53" y="-73.08" font-family="Times New Roman,serif" font-size="14.00">q2</text>
</g>
<!-- q4&#45;&gt;q2 -->
<g id="edge10" class="edge">
<title>q4&#45;&gt;q2</title>
<path fill="none" stroke="black" d="M218.41,-170.01C222.4,-165.19 226.7,-159.97 230.65,-155.13 245.02,-137.52 261.09,-117.51 273.25,-102.31"/>
<polygon fill="black" stroke="black" points="275.82,-104.7 279.33,-94.71 270.35,-100.33 275.82,-104.7"/>
<text xml:space="preserve" text-anchor="middle" x="252.03" y="-135.13" font-family="Times New Roman,serif" font-size="14.00">0</text>
</g>
<!-- q0 -->
<g id="node2" class="node">
<title>q0</title>
<ellipse fill="lightblue" stroke="black" cx="111.13" cy="-96.13" rx="20.13" ry="20.13"/>
<text xml:space="preserve" text-anchor="middle" x="111.13" y="-91.08" font-family="Times New Roman,serif" font-size="14.00">q0</text>
</g>
<!-- q1 -->
<g id="node3" class="node">
<title>q1</title>
<ellipse fill="lightblue" stroke="black" cx="111.13" cy="-20.13" rx="20.13" ry="20.13"/>
<text xml:space="preserve" text-anchor="middle" x="111.13" y="-15.08" font-family="Times New Roman,serif" font-size="14.00">q1</text>
</g>
<!-- q0&#45;&gt;q1 -->
<g id="edge2" class="edge">
<title>q0&#45;&gt;q1</title>
<path fill="none" stroke="black" d="M111.13,-75.71C111.13,-68.38 111.13,-59.92 111.13,-51.86"/>
<polygon fill="black" stroke="black" points="114.63,-52.01 111.13,-42.01 107.63,-52.01 114.63,-52.01"/>
<text xml:space="preserve" text-anchor="middle" x="99.88" y="-53.08" font-family="Times New Roman,serif" font-size="14.00">0</text>
</g>
<!-- dead -->
<g id="node6" class="node">
<title>dead</title>
<ellipse fill="red" stroke="black" cx="202.33" cy="-83.13" rx="28.32" ry="28.32"/>
<text xml:space="preserve" text-anchor="middle" x="202.33" y="-78.08" font-family="Times New Roman,serif" font-size="14.00">dead</text>
</g>
<!-- q0&#45;&gt;dead -->
<g id="edge3" class="edge">
<title>q0&#45;&gt;dead</title>
<path fill="none" stroke="black" d="M131.49,-93.31C140.59,-91.98 151.79,-90.35 162.54,-88.79"/>
<polygon fill="black" stroke="black" points="163,-92.25 172.39,-87.35 161.99,-85.33 163,-92.25"/>
<text xml:space="preserve" text-anchor="middle" x="152.64" y="-93.61" font-family="Times New Roman,serif" font-size="14.00">1</text>
</g>
<!-- q1&#45;&gt;q2 -->
<g id="edge4" class="edge">
<title>q1&#45;&gt;q2</title>
<path fill="none" stroke="black" d="M131.36,-18.36C155.45,-16.87 197.58,-16.71 230.65,-29.63 245.7,-35.51 260.06,-46.32 271.15,-56.24"/>
<polygon fill="black" stroke="black" points="268.51,-58.57 278.2,-62.87 273.31,-53.47 268.51,-58.57"/>
<text xml:space="preserve" text-anchor="middle" x="202.33" y="-32.83" font-family="Times New Roman,serif" font-size="14.00">0</text>
</g>
<!-- q1&#45;&gt;dead -->
<g id="edge5" class="edge">
<title>q1&#45;&gt;dead</title>
<path fill="none" stroke="black" d="M128.08,-31.39C139.48,-39.45 155.21,-50.56 169.17,-60.42"/>
<polygon fill="black" stroke="black" points="167.06,-63.21 177.25,-66.12 171.1,-57.49 167.06,-63.21"/>
<text xml:space="preserve" text-anchor="middle" x="152.64" y="-52.94" font-family="Times New Roman,serif" font-size="14.00">1</text>
</g>
<!-- q2&#45;&gt;q2 -->
<g id="edge6" class="edge">
<title>q2&#45;&gt;q2</title>
<path fill="none" stroke="black" d="M286.07,-96.97C284.8,-107.06 287.29,-116.26 293.53,-116.26 297.24,-116.26 299.62,-113.02 300.68,-108.27"/>
<polygon fill="black" stroke="black" points="304.17,-108.57 300.95,-98.48 297.18,-108.38 304.17,-108.57"/>
<text xml:space="preserve" text-anchor="middle" x="293.53" y="-119.46" font-family="Times New Roman,serif" font-size="14.00">0</text>
</g>
<!-- q3 -->
<g id="node5" class="node">
<title>q3</title>
<ellipse fill="lightblue" stroke="black" cx="293.53" cy="-188.13" rx="20.13" ry="20.13"/>
<text xml:space="preserve" text-anchor="middle" x="293.53" y="-183.08" font-family="Times New Roman,serif" font-size="14.00">q3</text>
</g>
<!-- q2&#45;&gt;q3 -->
<g id="edge7" class="edge">
<title>q2&#45;&gt;q3</title>
<path fill="none" stroke="black" d="M302.24,-96.31C306.41,-105.99 310.93,-118.26 313.03,-129.76 314.88,-139.88 312.58,-150.65 308.99,-160.14"/>
<polygon fill="black" stroke="black" points="305.82,-158.65 304.96,-169.21 312.22,-161.49 305.82,-158.65"/>
<text xml:space="preserve" text-anchor="middle" x="304.78" y="-128.08" font-family="Times New Roman,serif" font-size="14.00">1</text>
</g>
<!-- q3&#45;&gt;q4 -->
<g id="edge9" class="edge">
<title>q3&#45;&gt;q4</title>
<path fill="none" stroke="black" d="M273.16,-188.13C262.94,-188.13 250.09,-188.13 238.2,-188.13"/>
<polygon fill="black" stroke="black" points="238.28,-184.63 228.28,-188.13 238.28,-191.63 238.28,-184.63"/>
<text xml:space="preserve" text-anchor="middle" x="252.03" y="-191.33" font-family="Times New Roman,serif" font-size="14.00">1</text>
</g>
<!-- q3&#45;&gt;q2 -->
<g id="edge8" class="edge">
<title>q3&#45;&gt;q2</title>
<path fill="none" stroke="black" d="M293.53,-167.81C293.53,-151.63 293.53,-128.69 293.53,-110.07"/>
<polygon fill="black" stroke="black" points="297.03,-110.08 293.53,-100.08 290.03,-110.08 297.03,-110.08"/>
<text xml:space="preserve" text-anchor="middle" x="282.28" y="-128.08" font-family="Times New Roman,serif" font-size="14.00">0</text>
</g>
<!-- dead&#45;&gt;dead -->
<g id="edge12" class="edge">
<title>dead&#45;&gt;dead</title>
<path fill="none" stroke="black" d="M193.05,-110.25C192.64,-120.74 195.73,-129.45 202.33,-129.45 206.25,-129.45 208.93,-126.38 210.38,-121.69"/>
<polygon fill="black" stroke="black" points="213.86,-122.07 211.45,-111.76 206.9,-121.32 213.86,-122.07"/>
<text xml:space="preserve" text-anchor="middle" x="202.33" y="-132.65" font-family="Times New Roman,serif" font-size="14.00">0,1</text>
</g>
<!-- start -->
<g id="node7" class="node">
<title>start</title>
<polygon fill="red" stroke="none" points="54,-114.13 0,-114.13 0,-78.13 54,-78.13 54,-114.13"/>
</g>
<!-- start&#45;&gt;q0 -->
<g id="edge1" class="edge">
<title>start&#45;&gt;q0</title>
<path fill="none" stroke="black" d="M53.99,-96.13C62.04,-96.13 70.98,-96.13 79.33,-96.13"/>
<polygon fill="black" stroke="black" points="79.05,-99.63 89.05,-96.13 79.05,-92.63 79.05,-99.63"/>
</g>
</g>
</svg>
