<?xml version="1.0" encoding="UTF-8" standalone="no"?>
<!DOCTYPE svg PUBLIC "-//W3C//DTD SVG 1.1//EN"
 "http://www.w3.org/Graphics/SVG/1.1/DTD/svg11.dtd">
<!-- Generated by graphviz version 13.1.2 (20250808.2320)
 -->
<!-- Title: DFA_even_a_even_b Pages: 1 -->
<svg width="253pt" height="133pt"
 viewBox="0.00 0.00 253.00 133.00" xmlns="http://www.w3.org/2000/svg" xmlns:xlink="http://www.w3.org/1999/xlink">
<g id="graph0" class="graph" transform="scale(1 1) rotate(0) translate(4 128.75)">
<title>DFA_even_a_even_b</title>
<polygon fill="white" stroke="none" points="-4,4 -4,-128.75 249.04,-128.75 249.04,4 -4,4"/>
<!-- q0 -->
<g id="node1" class="node">
<title>q0</title>
<ellipse fill="lightgreen" stroke="black" cx="137.38" cy="-100.62" rx="20.13" ry="20.13"/>
<ellipse fill="none" stroke="black" cx="137.38" cy="-100.62" rx="24.13" ry="24.13"/>
<text xml:space="preserve" text-anchor="middle" x="137.38" y="-95.57" font-family="Times New Roman,serif" font-size="14.00">q0</text>
</g>
<!-- q1 -->
<g id="node2" class="node">
<title>q1</title>
<ellipse fill="lightblue" stroke="black" cx="137.38" cy="-20.62" rx="20.13" ry="20.13"/>
<text xml:space="preserve" text-anchor="middle" x="137.38" y="-15.57" font-family="Times New Roman,serif" font-size="14.00">q1</text>
</g>
<!-- q0&#45;&gt;q1 -->
<g id="edge2" class="edge">
<title>q0&#45;&gt;q1</title>
<path fill="none" stroke="black" d="M151.96,-81.37C156.2,-73.57 159.15,-64.35 156.88,-55.62 156.16,-52.85 155.17,-50.06 154.01,-47.34"/>
<polygon fill="black" stroke="black" points="157.27,-46.02 149.63,-38.67 151.02,-49.18 157.27,-46.02"/>
<text xml:space="preserve" text-anchor="middle" x="148.63" y="-53.57" font-family="Times New Roman,serif" font-size="14.00">a</text>
</g>
<!-- q2 -->
<g id="node3" class="node">
<title>q2</title>
<ellipse fill="lightblue" stroke="black" cx="224.39" cy="-98.62" rx="20.13" ry="20.13"/>
<text xml:space="preserve" text-anchor="middle" x="224.39" y="-93.57" font-family="Times New Roman,serif" font-size="14.00">q2</text>
</g>
<!-- q0&#45;&gt;q2 -->
<g id="edge3" class="edge">
<title>q0&#45;&gt;q2</title>
<path fill="none" stroke="black" d="M161.24,-106.44C169.15,-107.8 178.09,-108.59 186.26,-107.62 188.63,-107.33 191.06,-106.95 193.5,-106.51"/>
<polygon fill="black" stroke="black" points="194.16,-109.95 203.18,-104.4 192.67,-103.11 194.16,-109.95"/>
<text xml:space="preserve" text-anchor="middle" x="182.89" y="-111.24" font-family="Times New Roman,serif" font-size="14.00">b</text>
</g>
<!-- q1&#45;&gt;q0 -->
<g id="edge4" class="edge">
<title>q1&#45;&gt;q0</title>
<path fill="none" stroke="black" d="M137.38,-41.22C137.38,-48.37 137.38,-56.62 137.38,-64.65"/>
<polygon fill="black" stroke="black" points="133.88,-64.59 137.38,-74.59 140.88,-64.59 133.88,-64.59"/>
<text xml:space="preserve" text-anchor="middle" x="126.13" y="-53.57" font-family="Times New Roman,serif" font-size="14.00">a</text>
</g>
<!-- q3 -->
<g id="node4" class="node">
<title>q3</title>
<ellipse fill="lightblue" stroke="black" cx="224.39" cy="-22.62" rx="20.13" ry="20.13"/>
<text xml:space="preserve" text-anchor="middle" x="224.39" y="-17.57" font-family="Times New Roman,serif" font-size="14.00">q3</text>
</g>
<!-- q1&#45;&gt;q3 -->
<g id="edge5" class="edge">
<title>q1&#45;&gt;q3</title>
<path fill="none" stroke="black" d="M157.67,-21.07C167.92,-21.31 180.78,-21.61 192.39,-21.89"/>
<polygon fill="black" stroke="black" points="192.29,-25.39 202.37,-22.12 192.46,-18.39 192.29,-25.39"/>
<text xml:space="preserve" text-anchor="middle" x="182.89" y="-24.94" font-family="Times New Roman,serif" font-size="14.00">b</text>
</g>
<!-- q2&#45;&gt;q0 -->
<g id="edge7" class="edge">
<title>q2&#45;&gt;q0</title>
<path fill="none" stroke="black" d="M205.14,-91.77C199.21,-89.87 192.53,-88.07 186.26,-87.12 181.13,-86.34 175.76,-86.67 170.56,-87.64"/>
<polygon fill="black" stroke="black" points="169.8,-84.22 161.05,-90.18 171.61,-90.98 169.8,-84.22"/>
<text xml:space="preserve" text-anchor="middle" x="182.89" y="-90.32" font-family="Times New Roman,serif" font-size="14.00">b</text>
</g>
<!-- q2&#45;&gt;q3 -->
<g id="edge6" class="edge">
<title>q2&#45;&gt;q3</title>
<path fill="none" stroke="black" d="M237.57,-83.18C242.4,-75.71 246.19,-66.47 243.89,-57.62 243.17,-54.85 242.18,-52.06 241.03,-49.34"/>
<polygon fill="black" stroke="black" points="244.28,-48.02 236.64,-40.67 238.03,-51.18 244.28,-48.02"/>
<text xml:space="preserve" text-anchor="middle" x="235.64" y="-55.57" font-family="Times New Roman,serif" font-size="14.00">a</text>
</g>
<!-- q3&#45;&gt;q1 -->
<g id="edge9" class="edge">
<title>q3&#45;&gt;q1</title>
<path fill="none" stroke="black" d="M207.58,-11C201.27,-7.05 193.74,-3.13 186.26,-1.12 178.81,0.89 170.96,-0.66 163.82,-3.59"/>
<polygon fill="black" stroke="black" points="162.64,-0.26 155.35,-7.94 165.84,-6.49 162.64,-0.26"/>
<text xml:space="preserve" text-anchor="middle" x="182.89" y="-4.32" font-family="Times New Roman,serif" font-size="14.00">b</text>
</g>
<!-- q3&#45;&gt;q2 -->
<g id="edge8" class="edge">
<title>q3&#45;&gt;q2</title>
<path fill="none" stroke="black" d="M224.39,-42.98C224.39,-50.31 224.39,-58.76 224.39,-66.83"/>
<polygon fill="black" stroke="black" points="220.89,-66.68 224.39,-76.68 227.89,-66.68 220.89,-66.68"/>
<text xml:space="preserve" text-anchor="middle" x="213.14" y="-55.57" font-family="Times New Roman,serif" font-size="14.00">a</text>
</g>
<!-- start -->
<g id="node5" class="node">
<title>start</title>
<polygon fill="lightblue" stroke="none" points="54,-118.62 0,-118.62 0,-82.62 54,-82.62 54,-118.62"/>
</g>
<!-- start&#45;&gt;q0 -->
<g id="edge1" class="edge">
<title>start&#45;&gt;q0</title>
<path fill="none" stroke="black" d="M53.96,-100.62C68.23,-100.62 86.13,-100.62 101.6,-100.62"/>
<polygon fill="black" stroke="black" points="101.34,-104.12 111.34,-100.62 101.34,-97.12 101.34,-104.12"/>
<text xml:space="preserve" text-anchor="middle" x="83.62" y="-103.82" font-family="Times New Roman,serif" font-size="14.00">start</text>
</g>
</g>
</svg>
